<svg width="1719" height="1564" viewBox="0 0 1719 1564" fill="none" xmlns="http://www.w3.org/2000/svg">
<path d="M1442.5 114.008C1423.43 17.663 1215.42 104.927 1058.29 225.404C877.204 364.254 807.425 513.679 670.108 588.356C544.797 656.536 538.89 566.867 446.689 621.891C361.954 672.463 226.618 831.925 0.591596 1284.93" stroke="url(#paint0_linear_45_241)" stroke-opacity="0.1" stroke-width="2" stroke-miterlimit="10"/>
<path d="M13.229 1298.29C236.499 851.466 371.946 689.728 457.927 635.692C521.65 595.709 545.53 623.329 594.922 621.64C619.566 621.362 650.022 611.774 683.556 593.736C793.399 534.717 859.954 430.72 978.112 318.217C1008.23 289.472 1039.14 262.784 1070.19 238.7C1228 115.945 1433.82 20.9716 1456.19 110.783" stroke="url(#paint1_linear_45_241)" stroke-opacity="0.1" stroke-width="2" stroke-miterlimit="10"/>
<path d="M25.884 1311.56C246.397 870.924 381.879 706.981 468.925 649.634C532.91 607.483 558.287 631.79 607.81 628.185C633.061 626.785 663.477 616.89 696.739 599.255C804.986 541.847 871.431 443.249 989.981 331.52C1020.11 303.078 1050.9 276.469 1081.86 252.12C1240.35 127.429 1443.97 24.3746 1469.64 107.655" stroke="url(#paint2_linear_45_241)" stroke-opacity="0.1" stroke-width="2" stroke-miterlimit="10"/>
<path d="M38.4993 1324.79C256.203 890.421 391.797 724.231 480.011 663.435C544.31 619.115 571.08 640.148 620.811 634.588C646.615 632.097 676.967 621.922 709.932 604.709C816.686 548.833 882.79 455.788 1001.86 344.751C1032.01 316.55 1062.72 289.974 1093.61 265.351C1252.77 138.526 1454.19 27.6018 1483.14 104.354" stroke="url(#paint3_linear_45_241)" stroke-opacity="0.1" stroke-width="2" stroke-miterlimit="10"/>
<path d="M51.1144 1338.18C266.063 909.898 401.664 741.566 491.124 677.259C555.658 630.846 583.95 648.509 633.864 640.955C660.24 637.367 690.583 626.882 723.304 610.047C828.564 555.699 894.404 468.162 1014.05 357.753C1044.16 329.892 1074.72 303.422 1105.46 278.58C1265.32 149.595 1464.52 30.8117 1496.8 101.019" stroke="url(#paint4_linear_45_241)" stroke-opacity="0.1" stroke-width="2" stroke-miterlimit="10"/>
<path d="M63.6068 1351.55C275.877 929.311 411.619 756.869 502.217 690.961C566.887 643.863 596.801 656.627 646.844 647.271C673.778 642.567 704.111 631.77 736.577 615.332C840.343 562.508 905.867 480.513 1025.9 370.879C1056 343.285 1086.46 316.868 1117.09 291.79C1277.63 160.557 1474.63 33.9614 1510.2 97.6673" stroke="url(#paint5_linear_45_241)" stroke-opacity="0.1" stroke-width="2" stroke-miterlimit="10"/>
<path d="M76.3231 1364.79C285.71 948.744 421.351 776.19 513.279 704.593C578.202 654.271 609.694 664.826 659.842 653.59C687.304 647.786 717.63 636.682 749.842 620.636C852.113 569.335 917.398 492.802 1037.85 383.919C1067.94 356.615 1098.3 330.257 1128.81 304.95C1290.04 171.54 1484.83 36.9875 1523.69 94.231" stroke="url(#paint6_linear_45_241)" stroke-opacity="0.1" stroke-width="2" stroke-miterlimit="10"/>
<path d="M88.9104 1378.11C295.466 968.202 431.166 793.406 524.362 718.403C589.469 665.94 622.64 672.795 672.839 659.852C700.807 652.95 731.139 641.522 763.108 625.845C863.857 576.106 928.903 505.076 1049.8 396.866C1077.93 371.712 1107.95 345.275 1140.52 317.998C1302.48 182.332 1495.03 40.0534 1537.18 90.7348" stroke="url(#paint7_linear_45_241)" stroke-opacity="0.1" stroke-width="2" stroke-miterlimit="10"/>
<path d="M101.471 1391.42C305.324 987.537 440.952 810.77 535.396 732.002C600.711 677.546 635.585 680.679 685.861 665.97C714.335 657.959 744.691 646.218 776.421 630.944C875.675 582.723 940.431 517.172 1061.79 409.701C1090.05 384.675 1119.99 358.327 1152.31 330.906C1314.75 193.163 1505.19 42.9429 1550.64 87.0838" stroke="url(#paint8_linear_45_241)" stroke-opacity="0.1" stroke-width="2" stroke-miterlimit="10"/>
<path d="M114.054 1404.69C315.126 1006.88 450.735 828.074 546.45 745.653C611.946 689.242 648.653 688.476 698.749 672.212C727.692 663.113 758.067 651.068 789.55 636.204C887.333 589.482 951.823 529.431 1073.63 422.582C1101.88 397.78 1131.85 371.403 1163.92 343.858C1327.23 203.644 1515.36 45.6701 1564.09 83.3058" stroke="url(#paint9_linear_45_241)" stroke-opacity="0.1" stroke-width="2" stroke-miterlimit="10"/>
<path d="M126.591 1418C324.885 1026.21 460.498 845.374 557.408 759.251C623.085 700.896 661.523 696.268 711.643 678.368C741.05 668.155 771.465 655.78 802.71 641.316C898.97 596.128 963.194 541.557 1085.47 435.494C1113.84 410.855 1143.73 384.506 1175.52 356.872C1339.52 214.309 1525.41 48.54 1577.49 79.6109" stroke="url(#paint10_linear_45_241)" stroke-opacity="0.1" stroke-width="2" stroke-miterlimit="10"/>
<path d="M139.115 1431.31C334.655 1045.53 470.299 862.606 568.482 772.714C634.365 712.409 674.559 703.856 724.599 684.396C753.365 673.201 782.822 661.577 815.957 646.297C910.721 602.603 974.677 553.551 1097.39 448.171C1125.83 423.714 1155.68 397.371 1187.26 369.589C1351.95 224.665 1535.64 51.0646 1590.98 75.6442" stroke="url(#paint11_linear_45_241)" stroke-opacity="0.1" stroke-width="2" stroke-miterlimit="10"/>
<path d="M151.621 1444.61C344.408 1064.86 479.903 879.951 579.461 786.18C645.55 723.899 687.578 711.319 737.513 690.354C766.98 677.986 796.516 665.986 829.135 651.222C922.4 609.097 986.065 565.488 1109.24 460.782C1137.76 436.524 1167.57 410.166 1198.83 382.31C1364.19 234.99 1545.68 53.5537 1604.31 71.618" stroke="url(#paint12_linear_45_241)" stroke-opacity="0.1" stroke-width="2" stroke-miterlimit="10"/>
<path d="M164.057 1457.95C354.118 1084.05 489.771 897.061 590.421 799.594C656.715 735.389 700.579 718.698 750.407 696.263C780.6 682.661 810.191 670.323 842.19 656.172C933.983 615.479 997.327 577.472 1121.07 473.355C1149.69 449.235 1179.42 422.899 1210.43 394.948C1376.48 245.16 1555.76 55.8828 1617.68 67.4251" stroke="url(#paint13_linear_45_241)" stroke-opacity="0.1" stroke-width="2" stroke-miterlimit="10"/>
<path d="M176.596 1471.17C363.828 1103.24 499.432 914.281 601.381 812.887C667.906 746.707 713.579 725.898 763.249 702.046C794.169 687.188 823.864 674.509 855.423 660.815C945.665 621.668 1008.79 589.11 1132.87 485.746C1162.79 460.588 1192.55 434.411 1222.02 407.317C1388.7 255.175 1565.88 58.0047 1631.01 63.0172" stroke="url(#paint14_linear_45_241)" stroke-opacity="0.1" stroke-width="2" stroke-miterlimit="10"/>
<path d="M189.032 1484.47C373.512 1122.43 509.274 931.233 612.213 826.186C678.969 758.04 726.476 733.046 776.116 707.714C807.762 691.576 837.51 678.593 868.526 665.452C957.293 627.79 1020.12 600.766 1144.59 498.086C1174.48 473.219 1204.18 447.057 1233.5 419.761C1400.9 264.933 1575.82 60.0281 1644.34 58.3447" stroke="url(#paint15_linear_45_241)" stroke-opacity="0.1" stroke-width="2" stroke-miterlimit="10"/>
<path d="M201.44 1497.76C383.143 1141.57 519.088 948.247 623.197 839.253C690.132 769.207 739.501 739.917 788.904 713.275C821.277 695.833 851.076 682.604 881.575 669.975C968.815 633.836 1031.4 612.293 1156.38 510.206C1186.23 485.604 1215.88 459.43 1245.06 431.918C1413.04 274.671 1585.8 61.7933 1657.6 53.6153" stroke="url(#paint16_linear_45_241)" stroke-opacity="0.1" stroke-width="2" stroke-miterlimit="10"/>
<path d="M213.151 1510.95C392.093 1159.54 527.985 963.457 633.353 850.132C700.586 777.805 751.703 744.159 800.932 716.111C834.126 697.183 863.891 683.72 893.862 671.586C979.576 636.8 1041.84 620.795 1167.25 519.004C1197.06 494.576 1226.66 468.3 1255.68 440.492C1424.27 280.151 1594.86 58.6088 1669.92 43.8167" stroke="url(#paint17_linear_45_241)" stroke-opacity="0.1" stroke-width="2" stroke-miterlimit="10"/>
<path d="M224.767 1524.14C400.843 1177.39 536.96 978.48 643.458 860.883C710.937 786.319 763.802 748.235 812.908 718.784C846.742 698.551 876.679 684.655 906.072 673.039C990.256 639.694 1052.22 629.181 1178.04 527.634C1207.81 503.38 1237.35 476.992 1266.22 448.884C1435.42 285.376 1603.96 55.0459 1682.16 33.6223" stroke="url(#paint18_linear_45_241)" stroke-opacity="0.1" stroke-width="2" stroke-miterlimit="10"/>
<path d="M236.336 1537.33C409.77 1195.16 545.909 993.441 653.487 871.423C721.265 794.536 775.854 751.949 824.838 721.043C859.392 699.256 889.343 685.219 918.234 674.106C1000.86 642.199 1062.52 637.251 1188.77 536.024C1218.5 511.954 1248 485.447 1276.7 457.029C1446.48 290.272 1612.77 51.1479 1694.35 22.9344" stroke="url(#paint19_linear_45_241)" stroke-opacity="0.1" stroke-width="2" stroke-miterlimit="10"/>
<path d="M247.906 1550.48C418.566 1213.03 554.826 1008.52 663.409 882.063C731.459 802.893 787.747 755.745 836.609 723.431C871.883 700.096 901.901 685.839 930.24 675.196C1011.37 644.725 1072.72 645.423 1199.38 544.485C1229.06 520.579 1258.53 493.944 1287.07 465.226C1457.31 295.137 1621.57 47.2547 1706.46 12.1722" stroke="url(#paint20_linear_45_241)" stroke-opacity="0.1" stroke-width="2" stroke-miterlimit="10"/>
<path d="M259.4 1563.7C531.859 1023.76 721.469 813.464 848.584 725.563C987.348 629.604 1038.64 688.648 1210.15 552.853C1411.35 393.532 1615.61 50.1951 1718.65 1.19442" stroke="url(#paint21_linear_45_241)" stroke-opacity="0.1" stroke-width="2" stroke-miterlimit="10"/>
<defs>
<linearGradient id="paint0_linear_45_241" x1="726.135" y1="408.301" x2="883.482" y2="615.966" gradientUnits="userSpaceOnUse">
<stop stop-color="#155ADA"/>
<stop offset="1" stop-color="#0B743B"/>
</linearGradient>
<linearGradient id="paint1_linear_45_241" x1="739.171" y1="421.353" x2="896.532" y2="629.047" gradientUnits="userSpaceOnUse">
<stop stop-color="#155ADA"/>
<stop offset="1" stop-color="#0B743B"/>
</linearGradient>
<linearGradient id="paint2_linear_45_241" x1="752.097" y1="434.324" x2="909.506" y2="642.084" gradientUnits="userSpaceOnUse">
<stop stop-color="#155ADA"/>
<stop offset="1" stop-color="#0B743B"/>
</linearGradient>
<linearGradient id="paint3_linear_45_241" x1="765.035" y1="447.098" x2="922.542" y2="654.981" gradientUnits="userSpaceOnUse">
<stop stop-color="#155ADA"/>
<stop offset="1" stop-color="#0B743B"/>
</linearGradient>
<linearGradient id="paint4_linear_45_241" x1="778.053" y1="459.715" x2="935.764" y2="667.852" gradientUnits="userSpaceOnUse">
<stop stop-color="#155ADA"/>
<stop offset="1" stop-color="#0B743B"/>
</linearGradient>
<linearGradient id="paint5_linear_45_241" x1="790.885" y1="472.114" x2="948.905" y2="680.622" gradientUnits="userSpaceOnUse">
<stop stop-color="#155ADA"/>
<stop offset="1" stop-color="#0B743B"/>
</linearGradient>
<linearGradient id="paint6_linear_45_241" x1="803.877" y1="484.286" x2="962.261" y2="693.228" gradientUnits="userSpaceOnUse">
<stop stop-color="#155ADA"/>
<stop offset="1" stop-color="#0B743B"/>
</linearGradient>
<linearGradient id="paint7_linear_45_241" x1="816.805" y1="496.466" x2="975.564" y2="705.857" gradientUnits="userSpaceOnUse">
<stop stop-color="#155ADA"/>
<stop offset="1" stop-color="#0B743B"/>
</linearGradient>
<linearGradient id="paint8_linear_45_241" x1="829.71" y1="508.239" x2="989.01" y2="718.275" gradientUnits="userSpaceOnUse">
<stop stop-color="#155ADA"/>
<stop offset="1" stop-color="#0B743B"/>
</linearGradient>
<linearGradient id="paint9_linear_45_241" x1="842.624" y1="519.897" x2="1002.5" y2="730.612" gradientUnits="userSpaceOnUse">
<stop stop-color="#155ADA"/>
<stop offset="1" stop-color="#0B743B"/>
</linearGradient>
<linearGradient id="paint10_linear_45_241" x1="855.495" y1="531.253" x2="1016.08" y2="742.815" gradientUnits="userSpaceOnUse">
<stop stop-color="#155ADA"/>
<stop offset="1" stop-color="#0B743B"/>
</linearGradient>
<linearGradient id="paint11_linear_45_241" x1="868.406" y1="542.311" x2="1029.82" y2="754.851" gradientUnits="userSpaceOnUse">
<stop stop-color="#155ADA"/>
<stop offset="1" stop-color="#0B743B"/>
</linearGradient>
<linearGradient id="paint12_linear_45_241" x1="881.238" y1="553.091" x2="1043.61" y2="766.755" gradientUnits="userSpaceOnUse">
<stop stop-color="#155ADA"/>
<stop offset="1" stop-color="#0B743B"/>
</linearGradient>
<linearGradient id="paint13_linear_45_241" x1="894.053" y1="563.552" x2="1057.51" y2="778.496" gradientUnits="userSpaceOnUse">
<stop stop-color="#155ADA"/>
<stop offset="1" stop-color="#0B743B"/>
</linearGradient>
<linearGradient id="paint14_linear_45_241" x1="906.909" y1="573.512" x2="1071.64" y2="789.94" gradientUnits="userSpaceOnUse">
<stop stop-color="#155ADA"/>
<stop offset="1" stop-color="#0B743B"/>
</linearGradient>
<linearGradient id="paint15_linear_45_241" x1="919.717" y1="583.047" x2="1085.91" y2="801.187" gradientUnits="userSpaceOnUse">
<stop stop-color="#155ADA"/>
<stop offset="1" stop-color="#0B743B"/>
</linearGradient>
<linearGradient id="paint16_linear_45_241" x1="932.489" y1="592.069" x2="1100.36" y2="812.17" gradientUnits="userSpaceOnUse">
<stop stop-color="#155ADA"/>
<stop offset="1" stop-color="#0B743B"/>
</linearGradient>
<linearGradient id="paint17_linear_45_241" x1="944.643" y1="588.324" x2="1119.47" y2="816.495" gradientUnits="userSpaceOnUse">
<stop stop-color="#155ADA"/>
<stop offset="1" stop-color="#0B743B"/>
</linearGradient>
<linearGradient id="paint18_linear_45_241" x1="956.726" y1="583.392" x2="1139.05" y2="820.204" gradientUnits="userSpaceOnUse">
<stop stop-color="#155ADA"/>
<stop offset="1" stop-color="#0B743B"/>
</linearGradient>
<linearGradient id="paint19_linear_45_241" x1="968.771" y1="577.587" x2="1159" y2="823.457" gradientUnits="userSpaceOnUse">
<stop stop-color="#155ADA"/>
<stop offset="1" stop-color="#0B743B"/>
</linearGradient>
<linearGradient id="paint20_linear_45_241" x1="980.784" y1="571.336" x2="1179.14" y2="826.47" gradientUnits="userSpaceOnUse">
<stop stop-color="#155ADA"/>
<stop offset="1" stop-color="#0B743B"/>
</linearGradient>
<linearGradient id="paint21_linear_45_241" x1="992.804" y1="564.612" x2="1199.54" y2="829.242" gradientUnits="userSpaceOnUse">
<stop stop-color="#155ADA"/>
<stop offset="1" stop-color="#0B743B"/>
</linearGradient>
</defs>
</svg>
