<svg width="1693" height="1212" viewBox="0 0 1693 1212" fill="none" xmlns="http://www.w3.org/2000/svg">
<path d="M1448.73 978.629C1445.25 895.414 1247.76 703.46 1090.91 592.753C910.159 465.183 827.057 476.339 694.284 360.351C573.115 254.525 580.428 191.132 490.593 116.322C408.032 47.5713 265.135 -12.7524 0.301172 3.88588" stroke="url(#paint0_linear_45_265)" stroke-opacity="0.1" stroke-width="2" stroke-miterlimit="10"/>
<path d="M8.75018 24.8732C270.265 8.83788 413.582 67.8554 497.738 135.9C560.1 186.371 577.496 232.074 621.723 289.618C643.711 318.685 672.181 348.794 704.577 377.243C810.685 470.468 884.546 484.048 1005.56 553.508C1036.42 571.171 1067.68 591.061 1098.72 612.769C1256.49 722.828 1453.12 907.331 1460.45 990.346" stroke="url(#paint1_linear_45_265)" stroke-opacity="0.1" stroke-width="2" stroke-miterlimit="10"/>
<path d="M17.2339 45.8127C275.427 30.3923 419.084 88.0636 504.654 155.289C567.553 204.708 586.745 250.102 631.359 306.598C654.045 335.68 682.522 365.548 714.619 393.926C819.079 486.27 892.086 503.113 1013.34 573.525C1044.16 591.39 1075.32 611.193 1106.3 632.617C1264.95 742.275 1460.76 919.082 1471.94 1001.9" stroke="url(#paint2_linear_45_265)" stroke-opacity="0.1" stroke-width="2" stroke-miterlimit="10"/>
<path d="M25.698 66.6481C280.509 51.8415 424.58 108.234 511.674 174.68C575.156 223.108 596.049 268.098 641.122 323.613C664.453 352.665 692.913 382.282 724.687 410.574C827.602 502.112 899.526 522.043 1021.15 593.512C1051.96 611.557 1083.04 631.286 1114 652.454C1273.54 761.566 1468.48 930.81 1483.51 1013.43" stroke="url(#paint3_linear_45_265)" stroke-opacity="0.1" stroke-width="2" stroke-miterlimit="10"/>
<path d="M34.144 87.5115C285.641 73.2845 430.017 128.354 518.712 194.078C582.698 241.475 605.419 286.155 650.935 340.638C674.93 369.682 703.426 399.096 734.93 427.34C836.301 518.077 907.216 541.165 1029.26 613.719C1059.99 631.936 1090.92 651.56 1121.78 672.418C1282.24 781.008 1476.32 942.711 1495.22 1025.16" stroke="url(#paint4_linear_45_265)" stroke-opacity="0.1" stroke-width="2" stroke-miterlimit="10"/>
<path d="M42.4976 108.187C290.75 94.6182 435.824 147.295 525.757 213.383C589.96 260.523 614.814 304.054 660.699 357.567C685.348 386.577 713.879 415.79 745.1 443.987C844.927 533.93 914.782 560.141 1037.06 633.671C1067.74 652.046 1098.57 671.585 1129.37 692.168C1290.76 800.198 1483.97 954.406 1506.72 1036.68" stroke="url(#paint5_linear_45_265)" stroke-opacity="0.1" stroke-width="2" stroke-miterlimit="10"/>
<path d="M51.0788 128.964C295.878 115.92 440.874 168.441 532.788 232.553C597.667 277.983 624.239 322.007 670.482 374.475C695.756 403.427 724.324 432.446 755.265 460.598C853.548 549.751 922.423 579.13 1044.97 653.658C1075.59 672.207 1106.33 691.673 1137.05 711.979C1299.36 819.501 1491.71 966.136 1518.31 1048.26" stroke="url(#paint6_linear_45_265)" stroke-opacity="0.1" stroke-width="2" stroke-miterlimit="10"/>
<path d="M59.5338 149.653C300.935 137.158 446.293 188.374 539.813 251.873C605.156 296.193 633.743 339.891 680.272 391.36C706.151 420.229 734.771 449.061 765.443 477.163C862.153 565.517 930.042 598.089 1052.89 673.598C1081.47 691.183 1111.91 710.21 1144.75 731.732C1308.01 838.728 1499.46 977.898 1529.91 1059.82" stroke="url(#paint7_linear_45_265)" stroke-opacity="0.1" stroke-width="2" stroke-miterlimit="10"/>
<path d="M67.9862 170.21C306.112 158.367 451.675 208.31 546.832 270.96C612.638 314.299 643.267 357.694 690.113 408.164C716.6 436.949 745.285 465.624 775.689 493.709C870.856 581.282 937.717 616.979 1060.87 693.556C1089.54 711.379 1119.91 730.381 1152.54 751.527C1316.52 857.857 1507.2 989.606 1541.5 1071.35" stroke="url(#paint8_linear_45_265)" stroke-opacity="0.1" stroke-width="2" stroke-miterlimit="10"/>
<path d="M76.4704 190.738C311.245 179.492 457.066 228.188 553.865 290.092C620.106 332.443 652.915 375.58 699.82 424.88C726.878 453.551 755.623 482.069 785.75 510.132C879.399 596.943 945.252 635.811 1068.71 713.356C1097.35 731.327 1127.74 750.354 1160.16 771.135C1325.26 877.015 1514.96 1001.22 1553.12 1082.8" stroke="url(#paint9_linear_45_265)" stroke-opacity="0.1" stroke-width="2" stroke-miterlimit="10"/>
<path d="M84.9236 211.161C316.348 200.503 462.447 247.997 560.827 309.045C627.498 350.425 662.392 393.21 709.549 441.537C737.177 470.075 766.006 498.451 795.865 526.5C887.946 612.52 952.794 654.552 1076.56 733.21C1105.28 751.445 1135.6 770.413 1167.78 790.826C1333.82 896.138 1522.61 1012.88 1564.67 1094.34" stroke="url(#paint10_linear_45_265)" stroke-opacity="0.1" stroke-width="2" stroke-miterlimit="10"/>
<path d="M93.3771 231.501C321.474 221.459 467.879 267.76 567.916 328.011C635.041 368.451 672.051 410.882 719.357 458.166C746.553 485.342 774.423 513.069 806.082 542.873C896.623 628.113 960.461 673.338 1084.52 753.026C1113.28 771.479 1143.55 790.409 1175.57 810.508C1342.56 915.258 1530.46 1024.56 1576.35 1105.85" stroke="url(#paint11_linear_45_265)" stroke-opacity="0.1" stroke-width="2" stroke-miterlimit="10"/>
<path d="M101.833 251.743C326.593 242.353 473.127 287.325 574.926 346.844C642.508 386.335 681.717 428.447 729.142 474.696C757.126 501.989 785.122 529.598 816.25 559.137C905.24 643.651 968.058 691.999 1092.43 772.755C1121.23 791.44 1151.47 810.35 1183.21 830.034C1351.12 934.19 1538.16 1036.1 1587.9 1117.25" stroke="url(#paint12_linear_45_265)" stroke-opacity="0.1" stroke-width="2" stroke-miterlimit="10"/>
<path d="M110.236 271.855C331.704 263.053 478.651 307.011 581.934 365.59C649.964 404.169 691.384 445.918 738.921 491.158C767.726 518.566 795.819 546.051 826.311 575.266C913.793 659.006 975.545 710.55 1100.34 792.455C1129.2 811.367 1159.37 830.223 1190.9 849.572C1359.76 953.135 1545.91 1047.63 1599.5 1128.64" stroke="url(#paint13_linear_45_265)" stroke-opacity="0.1" stroke-width="2" stroke-miterlimit="10"/>
<path d="M118.772 291.888C336.833 283.648 483.991 326.439 588.971 384.195C657.476 421.872 701.085 463.231 748.68 507.442C778.31 534.956 806.544 562.382 836.582 591.391C922.472 674.348 983.273 729.123 1108.26 812.023C1138.43 831.866 1168.59 850.873 1198.63 868.968C1368.38 971.973 1553.74 1059.16 1611.1 1139.96" stroke="url(#paint14_linear_45_265)" stroke-opacity="0.1" stroke-width="2" stroke-miterlimit="10"/>
<path d="M127.226 311.752C341.956 304.129 489.54 345.855 595.901 402.609C664.88 439.399 710.708 480.367 758.484 523.667C788.94 551.279 817.266 578.612 846.745 607.357C931.12 689.593 990.89 747.568 1116.12 831.499C1146.22 851.522 1176.33 870.505 1206.27 888.331C1377.01 990.689 1561.41 1070.51 1622.74 1151.22" stroke="url(#paint15_linear_45_265)" stroke-opacity="0.1" stroke-width="2" stroke-miterlimit="10"/>
<path d="M135.683 331.459C347.058 324.423 495.069 365.201 603.011 421.003C672.406 456.897 720.492 497.45 768.24 539.709C799.527 567.411 827.936 594.689 856.884 623.18C939.693 704.668 998.489 765.881 1124.09 850.961C1154.12 871.148 1184.19 890.101 1214.02 907.65C1385.61 1009.4 1569.16 1081.85 1634.33 1162.49" stroke="url(#paint16_linear_45_265)" stroke-opacity="0.1" stroke-width="2" stroke-miterlimit="10"/>
<path d="M144.167 347.256C352.14 340.858 500.363 380.561 609.978 435.714C679.924 470.895 730.173 511.08 777.969 552.522C810.199 580.456 838.618 607.714 867.039 636.055C948.329 717.054 1006.1 781.721 1132.03 868.201C1162 888.611 1192.02 907.6 1221.75 924.936C1394.26 1026.39 1576.95 1091.72 1645.99 1172.52" stroke="url(#paint17_linear_45_265)" stroke-opacity="0.1" stroke-width="2" stroke-miterlimit="10"/>
<path d="M152.624 362.767C357.121 356.81 505.804 395.763 616.961 450.188C687.4 484.641 739.818 524.438 787.704 565.137C820.689 593.216 849.329 620.583 877.174 648.73C956.934 729.3 1013.73 797.436 1139.97 885.287C1169.87 905.925 1199.86 924.955 1229.48 942.077C1402.91 1043.24 1584.84 1101.53 1657.63 1182.38" stroke="url(#paint18_linear_45_265)" stroke-opacity="0.1" stroke-width="2" stroke-miterlimit="10"/>
<path d="M161.083 378.13C362.322 372.826 511.276 410.806 623.944 464.376C694.93 498.119 749.497 537.484 797.477 577.413C831.321 605.588 860.003 633.065 887.343 661.099C965.554 741.202 1021.37 812.861 1147.94 902.18C1177.77 923.056 1207.73 942.132 1237.23 959.029C1411.57 1059.84 1592.53 1110.81 1669.31 1191.97" stroke="url(#paint19_linear_45_265)" stroke-opacity="0.1" stroke-width="2" stroke-miterlimit="10"/>
<path d="M169.571 393.481C367.429 388.724 516.738 425.86 630.845 478.48C702.346 511.508 759.041 550.392 807.106 589.579C841.805 617.863 870.586 645.464 897.382 673.298C974.093 752.979 1028.93 828.206 1155.82 918.949C1185.58 940.054 1215.53 959.183 1244.92 975.872C1420.06 1076.14 1600.22 1120.05 1680.92 1201.41" stroke="url(#paint20_linear_45_265)" stroke-opacity="0.1" stroke-width="2" stroke-miterlimit="10"/>
<path d="M178.005 408.791C493.636 401.926 691.405 501.546 816.967 601.827C954.037 711.296 992.204 811.402 1163.89 935.855C1365.3 1081.84 1593.8 1115.46 1692.64 1210.79" stroke="url(#paint21_linear_45_265)" stroke-opacity="0.1" stroke-width="2" stroke-miterlimit="10"/>
<defs>
<linearGradient id="paint0_linear_45_265" x1="769.432" y1="313.616" x2="656.867" y2="471.625" gradientUnits="userSpaceOnUse">
<stop stop-color="#155ADA"/>
<stop offset="1" stop-color="#0B743B"/>
</linearGradient>
<linearGradient id="paint1_linear_45_265" x1="778.285" y1="334.84" x2="665.709" y2="492.87" gradientUnits="userSpaceOnUse">
<stop stop-color="#155ADA"/>
<stop offset="1" stop-color="#0B743B"/>
</linearGradient>
<linearGradient id="paint2_linear_45_265" x1="787.053" y1="355.904" x2="674.442" y2="513.984" gradientUnits="userSpaceOnUse">
<stop stop-color="#155ADA"/>
<stop offset="1" stop-color="#0B743B"/>
</linearGradient>
<linearGradient id="paint3_linear_45_265" x1="795.867" y1="376.853" x2="683.187" y2="535.028" gradientUnits="userSpaceOnUse">
<stop stop-color="#155ADA"/>
<stop offset="1" stop-color="#0B743B"/>
</linearGradient>
<linearGradient id="paint4_linear_45_265" x1="804.77" y1="397.781" x2="691.944" y2="556.149" gradientUnits="userSpaceOnUse">
<stop stop-color="#155ADA"/>
<stop offset="1" stop-color="#0B743B"/>
</linearGradient>
<linearGradient id="paint5_linear_45_265" x1="813.546" y1="418.388" x2="700.499" y2="577.04" gradientUnits="userSpaceOnUse">
<stop stop-color="#155ADA"/>
<stop offset="1" stop-color="#0B743B"/>
</linearGradient>
<linearGradient id="paint6_linear_45_265" x1="822.5" y1="439.006" x2="709.194" y2="597.991" gradientUnits="userSpaceOnUse">
<stop stop-color="#155ADA"/>
<stop offset="1" stop-color="#0B743B"/>
</linearGradient>
<linearGradient id="paint7_linear_45_265" x1="831.395" y1="459.566" x2="717.822" y2="618.895" gradientUnits="userSpaceOnUse">
<stop stop-color="#155ADA"/>
<stop offset="1" stop-color="#0B743B"/>
</linearGradient>
<linearGradient id="paint8_linear_45_265" x1="840.334" y1="479.844" x2="726.375" y2="639.666" gradientUnits="userSpaceOnUse">
<stop stop-color="#155ADA"/>
<stop offset="1" stop-color="#0B743B"/>
</linearGradient>
<linearGradient id="paint9_linear_45_265" x1="849.301" y1="500.056" x2="734.933" y2="660.399" gradientUnits="userSpaceOnUse">
<stop stop-color="#155ADA"/>
<stop offset="1" stop-color="#0B743B"/>
</linearGradient>
<linearGradient id="paint10_linear_45_265" x1="858.276" y1="520.034" x2="743.397" y2="681.027" gradientUnits="userSpaceOnUse">
<stop stop-color="#155ADA"/>
<stop offset="1" stop-color="#0B743B"/>
</linearGradient>
<linearGradient id="paint11_linear_45_265" x1="867.334" y1="539.86" x2="751.866" y2="701.602" gradientUnits="userSpaceOnUse">
<stop stop-color="#155ADA"/>
<stop offset="1" stop-color="#0B743B"/>
</linearGradient>
<linearGradient id="paint12_linear_45_265" x1="876.366" y1="559.43" x2="760.216" y2="722.034" gradientUnits="userSpaceOnUse">
<stop stop-color="#155ADA"/>
<stop offset="1" stop-color="#0B743B"/>
</linearGradient>
<linearGradient id="paint13_linear_45_265" x1="885.434" y1="578.781" x2="768.507" y2="742.367" gradientUnits="userSpaceOnUse">
<stop stop-color="#155ADA"/>
<stop offset="1" stop-color="#0B743B"/>
</linearGradient>
<linearGradient id="paint14_linear_45_265" x1="894.617" y1="597.85" x2="776.787" y2="762.575" gradientUnits="userSpaceOnUse">
<stop stop-color="#155ADA"/>
<stop offset="1" stop-color="#0B743B"/>
</linearGradient>
<linearGradient id="paint15_linear_45_265" x1="903.824" y1="616.602" x2="784.951" y2="782.641" gradientUnits="userSpaceOnUse">
<stop stop-color="#155ADA"/>
<stop offset="1" stop-color="#0B743B"/>
</linearGradient>
<linearGradient id="paint16_linear_45_265" x1="913.08" y1="634.989" x2="793.009" y2="802.533" gradientUnits="userSpaceOnUse">
<stop stop-color="#155ADA"/>
<stop offset="1" stop-color="#0B743B"/>
</linearGradient>
<linearGradient id="paint17_linear_45_265" x1="923.799" y1="644.603" x2="798.757" y2="818.35" gradientUnits="userSpaceOnUse">
<stop stop-color="#155ADA"/>
<stop offset="1" stop-color="#0B743B"/>
</linearGradient>
<linearGradient id="paint18_linear_45_265" x1="934.629" y1="653.383" x2="804.232" y2="833.778" gradientUnits="userSpaceOnUse">
<stop stop-color="#155ADA"/>
<stop offset="1" stop-color="#0B743B"/>
</linearGradient>
<linearGradient id="paint19_linear_45_265" x1="945.552" y1="661.561" x2="809.503" y2="848.936" gradientUnits="userSpaceOnUse">
<stop stop-color="#155ADA"/>
<stop offset="1" stop-color="#0B743B"/>
</linearGradient>
<linearGradient id="paint20_linear_45_265" x1="956.504" y1="669.417" x2="814.636" y2="863.939" gradientUnits="userSpaceOnUse">
<stop stop-color="#155ADA"/>
<stop offset="1" stop-color="#0B743B"/>
</linearGradient>
<linearGradient id="paint21_linear_45_265" x1="967.524" y1="676.972" x2="819.654" y2="878.829" gradientUnits="userSpaceOnUse">
<stop stop-color="#155ADA"/>
<stop offset="1" stop-color="#0B743B"/>
</linearGradient>
</defs>
</svg>
