<svg width="456" height="129" viewBox="0 0 456 129" fill="none" xmlns="http://www.w3.org/2000/svg">
<path d="M18.5299 25.3221V30.288H6.11507V25.3221H18.5299ZM7.9619 0.410407V30.288H1.94943V0.410407H7.9619ZM40.8568 13.0304V18.0169C40.8568 20.1236 40.5969 21.9705 40.0771 23.5574C39.5709 25.1306 38.8459 26.4507 37.9019 27.5178C36.9717 28.5712 35.843 29.3646 34.5161 29.8982C33.2028 30.4317 31.7458 30.6984 30.1452 30.6984C28.5446 30.6984 27.0808 30.4317 25.7539 29.8982C24.4406 29.3646 23.3051 28.5712 22.3475 27.5178C21.4035 26.4507 20.6717 25.1306 20.1518 23.5574C19.632 21.9705 19.372 20.1236 19.372 18.0169V13.0304C19.372 10.8689 19.6251 8.98107 20.1313 7.36681C20.6375 5.73886 21.3693 4.38452 22.327 3.30378C23.2846 2.20936 24.42 1.38854 25.7333 0.841334C27.0466 0.280445 28.5036 0 30.1042 0C31.7048 0 33.1617 0.280445 34.475 0.841334C35.7883 1.38854 36.9238 2.20936 37.8814 3.30378C38.839 4.38452 39.5709 5.73886 40.0771 7.36681C40.5969 8.98107 40.8568 10.8689 40.8568 13.0304ZM34.8854 18.0169V12.9894C34.8854 11.5666 34.7828 10.3559 34.5776 9.35728C34.3724 8.34494 34.0646 7.51729 33.6542 6.87432C33.2438 6.23135 32.7445 5.75938 32.1562 5.45841C31.568 5.15745 30.884 5.00697 30.1042 5.00697C29.3244 5.00697 28.6336 5.15745 28.0316 5.45841C27.4434 5.75938 26.944 6.23135 26.5336 6.87432C26.1369 7.51729 25.8359 8.34494 25.6307 9.35728C25.4392 10.3559 25.3435 11.5666 25.3435 12.9894V18.0169C25.3435 19.3849 25.4461 20.5546 25.6513 21.5259C25.8565 22.4971 26.1643 23.2906 26.5747 23.9062C26.9851 24.5218 27.4844 24.9801 28.0727 25.2811C28.6746 25.5684 29.3654 25.712 30.1452 25.712C30.9113 25.712 31.5885 25.5684 32.1767 25.2811C32.7787 24.9801 33.278 24.5218 33.6747 23.9062C34.0714 23.2906 34.3724 22.4971 34.5776 21.5259C34.7828 20.5546 34.8854 19.3849 34.8854 18.0169ZM44.4077 0.410407H53.9907C55.988 0.410407 57.6912 0.752413 59.1003 1.43642C60.5093 2.12044 61.5901 3.13277 62.3425 4.47344C63.0949 5.8141 63.4711 7.46941 63.4711 9.43936C63.4711 11.0536 63.2522 12.4353 62.8144 13.5845C62.3767 14.7199 61.7542 15.6707 60.9471 16.4368C60.14 17.1892 59.1755 17.7911 58.0537 18.2426L56.2274 19.3302H48.4502L48.4297 14.3437H53.8265C54.6473 14.3437 55.3245 14.1659 55.858 13.8102C56.4053 13.4408 56.8088 12.9278 57.0687 12.2712C57.3423 11.6008 57.4792 10.8211 57.4792 9.93185C57.4792 8.98791 57.356 8.18078 57.1098 7.51045C56.8772 6.82644 56.501 6.30659 55.9812 5.9509C55.475 5.58154 54.8115 5.39685 53.9907 5.39685H50.4202V30.288H44.4077V0.410407ZM57.9716 30.288L52.4927 16.9703L58.7925 16.9498L64.3945 30.0008V30.288H57.9716ZM83.9512 25.3221V30.288H70.9618V25.3221H83.9512ZM72.8292 0.410407V30.288H66.8167V0.410407H72.8292ZM82.207 12.5174V17.3397H70.9618V12.5174H82.207ZM83.9102 0.410407V5.39685H70.9618V0.410407H83.9102ZM88.7538 0.410407H94.0275L100.122 20.8487L106.196 0.410407H110.854L102.359 30.288H97.8648L88.7538 0.410407ZM86.6197 0.410407H91.6472L92.427 20.1099V30.288H86.6197V0.410407ZM108.556 0.410407H113.604V30.288H107.817V20.1099L108.556 0.410407Z" fill="#1959AC"/>
<path d="M132.751 0.410407V30.288H126.78V0.410407H132.751ZM147.219 19.7611H141.104V14.7747H147.219C148.081 14.7747 148.778 14.5831 149.312 14.2001C149.845 13.817 150.235 13.2903 150.481 12.62C150.728 11.936 150.851 11.1699 150.851 10.3217C150.851 9.45988 150.728 8.65275 150.481 7.90034C150.235 7.14792 149.845 6.54599 149.312 6.09455C148.778 5.62942 148.081 5.39685 147.219 5.39685H143.053V30.288H137.041V0.410407H147.219C149.23 0.410407 150.953 0.834494 152.39 1.68267C153.84 2.53084 154.955 3.7005 155.735 5.19165C156.514 6.66911 156.904 8.36546 156.904 10.2807C156.904 12.2096 156.514 13.8854 155.735 15.3082C154.955 16.7172 153.84 17.8117 152.39 18.5914C150.953 19.3712 149.23 19.7611 147.219 19.7611ZM172.726 22.4287C172.726 21.8952 172.679 21.4096 172.583 20.9718C172.487 20.534 172.282 20.1305 171.967 19.7611C171.666 19.3917 171.222 19.0224 170.633 18.653C170.059 18.2836 169.306 17.9006 168.376 17.5039C167.268 17.0387 166.194 16.5462 165.154 16.0264C164.115 15.4929 163.178 14.8773 162.343 14.1796C161.509 13.4819 160.845 12.6611 160.353 11.7171C159.874 10.7595 159.634 9.63773 159.634 8.35178C159.634 7.0932 159.86 5.9509 160.312 4.92488C160.777 3.89887 161.433 3.02333 162.282 2.29828C163.13 1.55955 164.122 0.991817 165.257 0.59509C166.406 0.198363 167.685 0 169.094 0C171.01 0 172.665 0.396727 174.06 1.19018C175.469 1.98363 176.557 3.07121 177.323 4.45292C178.103 5.83462 178.493 7.42153 178.493 9.21364H172.501C172.501 8.36546 172.378 7.61989 172.131 6.97692C171.899 6.32027 171.523 5.80726 171.003 5.43789C170.483 5.06853 169.812 4.88384 168.992 4.88384C168.226 4.88384 167.589 5.04117 167.083 5.35581C166.591 5.65678 166.221 6.07402 165.975 6.60755C165.743 7.1274 165.626 7.71565 165.626 8.3723C165.626 8.86479 165.743 9.3094 165.975 9.70613C166.221 10.0892 166.557 10.438 166.981 10.7527C167.405 11.0536 167.904 11.3478 168.479 11.635C169.067 11.9223 169.71 12.2028 170.408 12.4764C171.762 13.0099 172.959 13.5982 173.999 14.2411C175.038 14.8704 175.907 15.5818 176.605 16.3752C177.302 17.155 177.829 18.0374 178.185 19.0224C178.54 20.0073 178.718 21.1291 178.718 22.3877C178.718 23.6326 178.499 24.7681 178.062 25.7941C177.638 26.8064 177.015 27.682 176.194 28.4207C175.374 29.1457 174.382 29.7066 173.219 30.1034C172.07 30.5001 170.784 30.6984 169.361 30.6984C167.979 30.6984 166.673 30.5069 165.442 30.1239C164.21 29.7272 163.123 29.1321 162.179 28.3386C161.249 27.5315 160.517 26.5123 159.983 25.2811C159.45 24.0362 159.183 22.5655 159.183 20.8692H165.195C165.195 21.7721 165.284 22.545 165.462 23.188C165.64 23.8173 165.914 24.3235 166.283 24.7065C166.652 25.0759 167.104 25.3563 167.637 25.5478C168.185 25.7257 168.807 25.8146 169.505 25.8146C170.298 25.8146 170.927 25.6641 171.393 25.3632C171.871 25.0622 172.213 24.6586 172.419 24.1525C172.624 23.6463 172.726 23.0717 172.726 22.4287ZM195.361 0.410407H201.353V20.9308C201.353 23.229 200.929 25.1032 200.081 26.5533C199.246 27.9898 198.09 29.0431 196.613 29.7135C195.135 30.3701 193.446 30.6984 191.544 30.6984C189.629 30.6984 187.926 30.3701 186.435 29.7135C184.944 29.0431 183.781 27.9898 182.946 26.5533C182.126 25.1032 181.715 23.229 181.715 20.9308V0.410407H187.707V20.9308C187.707 22.2304 187.851 23.229 188.138 23.9267C188.439 24.6244 188.87 25.1032 189.431 25.3632C190.005 25.6094 190.71 25.7325 191.544 25.7325C192.393 25.7325 193.09 25.6094 193.637 25.3632C194.198 25.1032 194.622 24.6244 194.91 23.9267C195.211 23.229 195.361 22.2304 195.361 20.9308V0.410407ZM207.243 0.410407H212.517L218.612 20.8487L224.686 0.410407H229.344L220.848 30.288H216.354L207.243 0.410407ZM205.109 0.410407H210.137L210.916 20.1099V30.288H205.109V0.410407ZM227.045 0.410407H232.093V30.288H226.307V20.1099L227.045 0.410407ZM252.8 30.288H247.526L247.567 25.3221H252.8C254.25 25.3221 255.379 25.0622 256.186 24.5423C256.993 24.0225 257.561 23.2017 257.889 22.0799C258.231 20.9581 258.402 19.4875 258.402 17.668V13.0099C258.402 11.6282 258.313 10.4585 258.135 9.50092C257.958 8.52963 257.657 7.74985 257.232 7.1616C256.808 6.55967 256.241 6.11507 255.529 5.82778C254.818 5.5405 253.936 5.39685 252.882 5.39685H247.424V0.410407H252.882C254.606 0.410407 256.172 0.690852 257.581 1.25174C258.99 1.81263 260.201 2.63345 261.213 3.71418C262.226 4.78124 263.006 6.10139 263.553 7.67461C264.1 9.24784 264.374 11.04 264.374 13.0509V17.668C264.374 19.6927 264.1 21.4848 263.553 23.0444C263.006 24.6039 262.226 25.924 261.213 27.0048C260.215 28.0718 259.004 28.8858 257.581 29.4467C256.159 30.0076 254.565 30.288 252.8 30.288ZM251.015 0.410407V30.288H245.002V0.410407H251.015ZM288.917 13.0304V18.0169C288.917 20.1236 288.657 21.9705 288.137 23.5574C287.631 25.1306 286.906 26.4507 285.962 27.5178C285.032 28.5712 283.903 29.3646 282.576 29.8982C281.263 30.4317 279.806 30.6984 278.205 30.6984C276.605 30.6984 275.141 30.4317 273.814 29.8982C272.5 29.3646 271.365 28.5712 270.407 27.5178C269.463 26.4507 268.732 25.1306 268.212 23.5574C267.692 21.9705 267.432 20.1236 267.432 18.0169V13.0304C267.432 10.8689 267.685 8.98107 268.191 7.36681C268.697 5.73886 269.429 4.38452 270.387 3.30378C271.344 2.20936 272.48 1.38854 273.793 0.841334C275.107 0.280445 276.563 0 278.164 0C279.765 0 281.222 0.280445 282.535 0.841334C283.848 1.38854 284.984 2.20936 285.941 3.30378C286.899 4.38452 287.631 5.73886 288.137 7.36681C288.657 8.98107 288.917 10.8689 288.917 13.0304ZM282.945 18.0169V12.9894C282.945 11.5666 282.843 10.3559 282.637 9.35728C282.432 8.34494 282.124 7.51729 281.714 6.87432C281.304 6.23135 280.804 5.75938 280.216 5.45841C279.628 5.15745 278.944 5.00697 278.164 5.00697C277.384 5.00697 276.693 5.15745 276.091 5.45841C275.503 5.75938 275.004 6.23135 274.594 6.87432C274.197 7.51729 273.896 8.34494 273.691 9.35728C273.499 10.3559 273.403 11.5666 273.403 12.9894V18.0169C273.403 19.3849 273.506 20.5546 273.711 21.5259C273.916 22.4971 274.224 23.2906 274.635 23.9062C275.045 24.5218 275.544 24.9801 276.133 25.2811C276.734 25.5684 277.425 25.712 278.205 25.712C278.971 25.712 279.648 25.5684 280.237 25.2811C280.839 24.9801 281.338 24.5218 281.735 23.9062C282.131 23.2906 282.432 22.4971 282.637 21.5259C282.843 20.5546 282.945 19.3849 282.945 18.0169ZM309.027 25.3221V30.288H296.613V25.3221H309.027ZM298.46 0.410407V30.288H292.447V0.410407H298.46ZM331.354 13.0304V18.0169C331.354 20.1236 331.095 21.9705 330.575 23.5574C330.069 25.1306 329.343 26.4507 328.4 27.5178C327.469 28.5712 326.341 29.3646 325.014 29.8982C323.7 30.4317 322.243 30.6984 320.643 30.6984C319.042 30.6984 317.578 30.4317 316.251 29.8982C314.938 29.3646 313.803 28.5712 312.845 27.5178C311.901 26.4507 311.169 25.1306 310.649 23.5574C310.13 21.9705 309.87 20.1236 309.87 18.0169V13.0304C309.87 10.8689 310.123 8.98107 310.629 7.36681C311.135 5.73886 311.867 4.38452 312.825 3.30378C313.782 2.20936 314.918 1.38854 316.231 0.841334C317.544 0.280445 319.001 0 320.602 0C322.202 0 323.659 0.280445 324.973 0.841334C326.286 1.38854 327.421 2.20936 328.379 3.30378C329.337 4.38452 330.069 5.73886 330.575 7.36681C331.095 8.98107 331.354 10.8689 331.354 13.0304ZM325.383 18.0169V12.9894C325.383 11.5666 325.28 10.3559 325.075 9.35728C324.87 8.34494 324.562 7.51729 324.152 6.87432C323.741 6.23135 323.242 5.75938 322.654 5.45841C322.066 5.15745 321.382 5.00697 320.602 5.00697C319.822 5.00697 319.131 5.15745 318.529 5.45841C317.941 5.75938 317.442 6.23135 317.031 6.87432C316.635 7.51729 316.334 8.34494 316.128 9.35728C315.937 10.3559 315.841 11.5666 315.841 12.9894V18.0169C315.841 19.3849 315.944 20.5546 316.149 21.5259C316.354 22.4971 316.662 23.2906 317.072 23.9062C317.483 24.5218 317.982 24.9801 318.57 25.2811C319.172 25.5684 319.863 25.712 320.643 25.712C321.409 25.712 322.086 25.5684 322.674 25.2811C323.276 24.9801 323.776 24.5218 324.172 23.9062C324.569 23.2906 324.87 22.4971 325.075 21.5259C325.28 20.5546 325.383 19.3849 325.383 18.0169ZM334.905 0.410407H344.488C346.486 0.410407 348.189 0.752413 349.598 1.43642C351.007 2.12044 352.088 3.13277 352.84 4.47344C353.593 5.8141 353.969 7.46941 353.969 9.43936C353.969 11.0536 353.75 12.4353 353.312 13.5845C352.874 14.7199 352.252 15.6707 351.445 16.4368C350.638 17.1892 349.673 17.7911 348.551 18.2426L346.725 19.3302H338.948L338.927 14.3437H344.324C345.145 14.3437 345.822 14.1659 346.356 13.8102C346.903 13.4408 347.306 12.9278 347.566 12.2712C347.84 11.6008 347.977 10.8211 347.977 9.93185C347.977 8.98791 347.854 8.18078 347.607 7.51045C347.375 6.82644 346.999 6.30659 346.479 5.9509C345.973 5.58154 345.309 5.39685 344.488 5.39685H340.918V30.288H334.905V0.410407ZM348.469 30.288L342.99 16.9703L349.29 16.9498L354.892 30.0008V30.288H348.469ZM378.8 22.4287C378.8 21.8952 378.752 21.4096 378.656 20.9718C378.561 20.534 378.355 20.1305 378.041 19.7611C377.74 19.3917 377.295 19.0224 376.707 18.653C376.132 18.2836 375.38 17.9006 374.45 17.5039C373.342 17.0387 372.268 16.5462 371.228 16.0264C370.188 15.4929 369.251 14.8773 368.417 14.1796C367.582 13.4819 366.919 12.6611 366.426 11.7171C365.947 10.7595 365.708 9.63773 365.708 8.35178C365.708 7.0932 365.934 5.9509 366.385 4.92488C366.85 3.89887 367.507 3.02333 368.355 2.29828C369.203 1.55955 370.195 0.991817 371.331 0.59509C372.48 0.198363 373.759 0 375.168 0C377.083 0 378.738 0.396727 380.134 1.19018C381.543 1.98363 382.63 3.07121 383.397 4.45292C384.176 5.83462 384.566 7.42153 384.566 9.21364H378.574C378.574 8.36546 378.451 7.61989 378.205 6.97692C377.972 6.32027 377.596 5.80726 377.076 5.43789C376.556 5.06853 375.886 4.88384 375.065 4.88384C374.299 4.88384 373.663 5.04117 373.157 5.35581C372.664 5.65678 372.295 6.07402 372.049 6.60755C371.816 7.1274 371.7 7.71565 371.7 8.3723C371.7 8.86479 371.816 9.3094 372.049 9.70613C372.295 10.0892 372.63 10.438 373.054 10.7527C373.478 11.0536 373.978 11.3478 374.552 11.635C375.141 11.9223 375.783 12.2028 376.481 12.4764C377.836 13.0099 379.033 13.5982 380.072 14.2411C381.112 14.8704 381.981 15.5818 382.678 16.3752C383.376 17.155 383.903 18.0374 384.258 19.0224C384.614 20.0073 384.792 21.1291 384.792 22.3877C384.792 23.6326 384.573 24.7681 384.135 25.7941C383.711 26.8064 383.089 27.682 382.268 28.4207C381.447 29.1457 380.455 29.7066 379.292 30.1034C378.143 30.5001 376.857 30.6984 375.435 30.6984C374.053 30.6984 372.746 30.5069 371.515 30.1239C370.284 29.7272 369.196 29.1321 368.253 28.3386C367.322 27.5315 366.59 26.5123 366.057 25.2811C365.523 24.0362 365.257 22.5655 365.257 20.8692H371.269C371.269 21.7721 371.358 22.545 371.536 23.188C371.714 23.8173 371.987 24.3235 372.357 24.7065C372.726 25.0759 373.177 25.3563 373.711 25.5478C374.258 25.7257 374.881 25.8146 375.578 25.8146C376.372 25.8146 377.001 25.6641 377.466 25.3632C377.945 25.0622 378.287 24.6586 378.492 24.1525C378.697 23.6463 378.8 23.0717 378.8 22.4287ZM394.253 0.410407V30.288H388.281V0.410407H394.253ZM409.828 0.410407V30.288H403.857V0.410407H409.828ZM417.257 0.410407V5.39685H396.572V0.410407H417.257ZM12.7637 54.7757L6.34079 79.318H0L9.33676 49.4404H13.2972L12.7637 54.7757ZM17.8322 79.318L11.3683 54.7757L10.7732 49.4404H14.7952L24.214 79.318H17.8322ZM18.0579 68.1755V73.1619H4.57604V68.1755H18.0579ZM28.3599 49.4404H33.6337L39.7282 69.8786L45.8022 49.4404H50.4604L41.9649 79.318H37.471L28.3599 49.4404ZM26.2258 49.4404H31.2533L32.0331 69.1399V79.318H26.2258V49.4404ZM48.1621 49.4404H53.2101V79.318H47.4234V69.1399L48.1621 49.4404ZM74.4084 74.3521V79.318H61.4191V74.3521H74.4084ZM63.2864 49.4404V79.318H57.2739V49.4404H63.2864ZM72.6642 61.5474V66.3697H61.4191V61.5474H72.6642ZM74.3674 49.4404V54.4268H61.4191V49.4404H74.3674ZM89.3891 49.4404V79.318H83.4177V49.4404H89.3891ZM96.8175 49.4404V54.4268H76.133V49.4404H96.8175ZM121.32 69.3656H127.292C127.21 71.6092 126.758 73.5039 125.938 75.0498C125.117 76.582 123.947 77.7448 122.429 78.5382C120.924 79.3317 119.104 79.7284 116.97 79.7284C115.315 79.7284 113.844 79.4548 112.558 78.9076C111.272 78.3467 110.178 77.5259 109.275 76.4452C108.372 75.3644 107.688 74.0306 107.223 72.4437C106.772 70.8431 106.546 69.0031 106.546 66.9237V61.8552C106.546 59.7758 106.785 57.9358 107.264 56.3352C107.756 54.7346 108.454 53.394 109.357 52.3132C110.274 51.2188 111.375 50.398 112.661 49.8508C113.96 49.2899 115.424 49.0094 117.052 49.0094C119.227 49.0094 121.047 49.4199 122.511 50.2407C123.974 51.0615 125.103 52.2585 125.896 53.8317C126.704 55.3913 127.189 57.2997 127.353 59.5569H121.341C121.314 58.1342 121.156 57.0192 120.869 56.2121C120.595 55.3913 120.158 54.8167 119.556 54.4884C118.954 54.1464 118.119 53.9754 117.052 53.9754C116.259 53.9754 115.575 54.119 115 54.4063C114.426 54.6799 113.954 55.1245 113.584 55.7401C113.215 56.3557 112.941 57.1629 112.763 58.1615C112.599 59.1602 112.517 60.3777 112.517 61.8141V66.9237C112.517 68.3328 112.592 69.5366 112.743 70.5353C112.893 71.5203 113.133 72.3274 113.461 72.9567C113.789 73.586 114.234 74.0443 114.795 74.3316C115.37 74.6188 116.095 74.7625 116.97 74.7625C117.982 74.7625 118.796 74.612 119.412 74.311C120.041 74.0101 120.506 73.4697 120.807 72.6899C121.108 71.9102 121.279 70.8021 121.32 69.3656ZM151.199 62.0604V67.0468C151.199 69.1536 150.939 71.0004 150.419 72.5873C149.913 74.1606 149.188 75.4807 148.244 76.5478C147.314 77.6011 146.185 78.3946 144.858 78.9281C143.545 79.4616 142.088 79.7284 140.487 79.7284C138.887 79.7284 137.423 79.4616 136.096 78.9281C134.783 78.3946 133.647 77.6011 132.69 76.5478C131.746 75.4807 131.014 74.1606 130.494 72.5873C129.974 71.0004 129.714 69.1536 129.714 67.0468V62.0604C129.714 59.8989 129.967 58.011 130.473 56.3968C130.98 54.7688 131.711 53.4145 132.669 52.3337C133.627 51.2393 134.762 50.4185 136.075 49.8713C137.389 49.3104 138.846 49.03 140.446 49.03C142.047 49.03 143.504 49.3104 144.817 49.8713C146.13 50.4185 147.266 51.2393 148.223 52.3337C149.181 53.4145 149.913 54.7688 150.419 56.3968C150.939 58.011 151.199 59.8989 151.199 62.0604ZM145.227 67.0468V62.0193C145.227 60.5966 145.125 59.3859 144.92 58.3872C144.714 57.3749 144.407 56.5473 143.996 55.9043C143.586 55.2613 143.087 54.7893 142.498 54.4884C141.91 54.1874 141.226 54.0369 140.446 54.0369C139.666 54.0369 138.976 54.1874 138.374 54.4884C137.785 54.7893 137.286 55.2613 136.876 55.9043C136.479 56.5473 136.178 57.3749 135.973 58.3872C135.781 59.3859 135.686 60.5966 135.686 62.0193V67.0468C135.686 68.4149 135.788 69.5845 135.993 70.5558C136.199 71.5271 136.506 72.3206 136.917 72.9362C137.327 73.5518 137.826 74.0101 138.415 74.311C139.017 74.5983 139.707 74.742 140.487 74.742C141.253 74.742 141.931 74.5983 142.519 74.311C143.121 74.0101 143.62 73.5518 144.017 72.9362C144.414 72.3206 144.714 71.5271 144.92 70.5558C145.125 69.5845 145.227 68.4149 145.227 67.0468ZM175.619 49.4404V79.318H169.812L160.434 60.624V79.318H154.729V49.4404H160.454L169.914 68.3396V49.4404H175.619ZM192.262 71.4587C192.262 70.9252 192.214 70.4395 192.118 70.0018C192.022 69.564 191.817 69.1604 191.503 68.7911C191.202 68.4217 190.757 68.0523 190.169 67.683C189.594 67.3136 188.842 66.9306 187.911 66.5338C186.803 66.0687 185.729 65.5762 184.69 65.0564C183.65 64.5228 182.713 63.9072 181.878 63.2095C181.044 62.5118 180.38 61.691 179.888 60.7471C179.409 59.7895 179.17 58.6677 179.17 57.3817C179.17 56.1232 179.395 54.9809 179.847 53.9548C180.312 52.9288 180.969 52.0533 181.817 51.3282C182.665 50.5895 183.657 50.0218 184.792 49.6251C185.941 49.2283 187.221 49.03 188.63 49.03C190.545 49.03 192.2 49.4267 193.596 50.2201C195.005 51.0136 196.092 52.1012 196.858 53.4829C197.638 54.8646 198.028 56.4515 198.028 58.2436H192.036C192.036 57.3954 191.913 56.6499 191.667 56.0069C191.434 55.3502 191.058 54.8372 190.538 54.4679C190.018 54.0985 189.348 53.9138 188.527 53.9138C187.761 53.9138 187.125 54.0711 186.619 54.3858C186.126 54.6867 185.757 55.104 185.511 55.6375C185.278 56.1574 185.162 56.7456 185.162 57.4023C185.162 57.8948 185.278 58.3394 185.511 58.7361C185.757 59.1191 186.092 59.468 186.516 59.7826C186.94 60.0836 187.439 60.3777 188.014 60.665C188.602 60.9523 189.245 61.2327 189.943 61.5063C191.297 62.0399 192.494 62.6281 193.534 63.2711C194.574 63.9004 195.442 64.6118 196.14 65.4052C196.838 66.185 197.364 67.0674 197.72 68.0523C198.076 69.0373 198.254 70.1591 198.254 71.4177C198.254 72.6626 198.035 73.798 197.597 74.824C197.173 75.8364 196.551 76.7119 195.73 77.4507C194.909 78.1757 193.917 78.7366 192.754 79.1333C191.605 79.5301 190.319 79.7284 188.896 79.7284C187.515 79.7284 186.208 79.5369 184.977 79.1538C183.746 78.7571 182.658 78.162 181.714 77.3686C180.784 76.5614 180.052 75.5423 179.519 74.311C178.985 73.0661 178.718 71.5955 178.718 69.8992H184.731C184.731 70.8021 184.82 71.575 184.998 72.218C185.175 72.8473 185.449 73.3534 185.818 73.7365C186.188 74.1058 186.639 74.3863 187.173 74.5778C187.72 74.7556 188.342 74.8446 189.04 74.8446C189.834 74.8446 190.463 74.6941 190.928 74.3931C191.407 74.0922 191.749 73.6886 191.954 73.1824C192.159 72.6763 192.262 72.1017 192.262 71.4587ZM218.611 74.3521V79.318H205.621V74.3521H218.611ZM207.489 49.4404V79.318H201.476V49.4404H207.489ZM216.866 61.5474V66.3697H205.621V61.5474H216.866ZM218.57 49.4404V54.4268H205.621V49.4404H218.57ZM235.52 69.3656H241.492C241.41 71.6092 240.958 73.5039 240.137 75.0498C239.317 76.582 238.147 77.7448 236.628 78.5382C235.124 79.3317 233.304 79.7284 231.17 79.7284C229.515 79.7284 228.044 79.4548 226.758 78.9076C225.472 78.3467 224.378 77.5259 223.475 76.4452C222.572 75.3644 221.888 74.0306 221.423 72.4437C220.971 70.8431 220.746 69.0031 220.746 66.9237V61.8552C220.746 59.7758 220.985 57.9358 221.464 56.3352C221.956 54.7346 222.654 53.394 223.557 52.3132C224.474 51.2188 225.575 50.398 226.861 49.8508C228.16 49.2899 229.624 49.0094 231.252 49.0094C233.427 49.0094 235.247 49.4199 236.71 50.2407C238.174 51.0615 239.303 52.2585 240.096 53.8317C240.903 55.3913 241.389 57.2997 241.553 59.5569H235.541C235.513 58.1342 235.356 57.0192 235.069 56.2121C234.795 55.3913 234.357 54.8167 233.756 54.4884C233.154 54.1464 232.319 53.9754 231.252 53.9754C230.459 53.9754 229.775 54.119 229.2 54.4063C228.625 54.6799 228.154 55.1245 227.784 55.7401C227.415 56.3557 227.141 57.1629 226.963 58.1615C226.799 59.1602 226.717 60.3777 226.717 61.8141V66.9237C226.717 68.3328 226.792 69.5366 226.943 70.5353C227.093 71.5203 227.333 72.3274 227.661 72.9567C227.989 73.586 228.434 74.0443 228.995 74.3316C229.569 74.6188 230.294 74.7625 231.17 74.7625C232.182 74.7625 232.996 74.612 233.612 74.311C234.241 74.0101 234.706 73.4697 235.007 72.6899C235.308 71.9102 235.479 70.8021 235.52 69.3656ZM255.693 49.4404V79.318H249.721V49.4404H255.693ZM263.121 49.4404V54.4268H242.436V49.4404H263.121ZM282.903 74.3521V79.318H269.914V74.3521H282.903ZM271.781 49.4404V79.318H265.769V49.4404H271.781ZM281.159 61.5474V66.3697H269.914V61.5474H281.159ZM282.862 49.4404V54.4268H269.914V49.4404H282.862ZM297.884 49.4404V79.318H291.913V49.4404H297.884ZM305.312 49.4404V54.4268H284.628V49.4404H305.312ZM321.381 49.4404H327.373V69.9607C327.373 72.259 326.949 74.1332 326.1 75.5833C325.266 77.0197 324.11 78.0731 322.632 78.7434C321.155 79.4001 319.466 79.7284 317.564 79.7284C315.649 79.7284 313.946 79.4001 312.454 78.7434C310.963 78.0731 309.8 77.0197 308.966 75.5833C308.145 74.1332 307.735 72.259 307.735 69.9607V49.4404H313.727V69.9607C313.727 71.2603 313.87 72.259 314.158 72.9567C314.459 73.6544 314.889 74.1332 315.45 74.3931C316.025 74.6394 316.729 74.7625 317.564 74.7625C318.412 74.7625 319.11 74.6394 319.657 74.3931C320.218 74.1332 320.642 73.6544 320.929 72.9567C321.23 72.259 321.381 71.2603 321.381 69.9607V49.4404ZM331.149 49.4404H340.732C342.73 49.4404 344.433 49.7824 345.842 50.4664C347.251 51.1504 348.332 52.1627 349.084 53.5034C349.836 54.8441 350.213 56.4994 350.213 58.4693C350.213 60.0836 349.994 61.4653 349.556 62.6144C349.118 63.7499 348.496 64.7007 347.689 65.4668C346.882 66.2192 345.917 66.8211 344.795 67.2726L342.969 68.3601H335.192L335.171 63.3737H340.568C341.389 63.3737 342.066 63.1958 342.6 62.8402C343.147 62.4708 343.55 61.9578 343.81 61.3011C344.084 60.6308 344.221 59.851 344.221 58.9618C344.221 58.0179 344.098 57.2107 343.851 56.5404C343.619 55.8564 343.243 55.3366 342.723 54.9809C342.217 54.6115 341.553 54.4268 340.732 54.4268H337.162V79.318H331.149V49.4404ZM344.713 79.318L339.234 66.0003L345.534 65.9798L351.136 79.0307V79.318H344.713ZM353.743 76.3836C353.743 75.4807 354.044 74.7283 354.646 74.1264C355.248 73.5107 356.062 73.2029 357.088 73.2029C358.114 73.2029 358.928 73.5107 359.53 74.1264C360.132 74.7283 360.433 75.4807 360.433 76.3836C360.433 77.2865 360.132 78.0389 359.53 78.6408C358.928 79.2428 358.114 79.5437 357.088 79.5437C356.062 79.5437 355.248 79.2428 354.646 78.6408C354.044 78.0389 353.743 77.2865 353.743 76.3836ZM390.928 74.3521V79.318H377.938V74.3521H390.928ZM379.805 49.4404V79.318H373.793V49.4404H379.805ZM389.183 61.5474V66.3697H377.938V61.5474H389.183ZM390.886 49.4404V54.4268H377.938V49.4404H390.886ZM414.486 49.4404V79.318H408.678L399.301 60.624V79.318H393.596V49.4404H399.321L408.781 68.3396V49.4404H414.486ZM424.726 49.4404V79.318H418.755V49.4404H424.726ZM431.15 49.4404H436.424L442.518 69.8786L448.592 49.4404H453.25L444.755 79.318H440.261L431.15 49.4404ZM429.016 49.4404H434.043L434.823 69.1399V79.318H429.016V49.4404ZM450.952 49.4404H456V79.318H450.213V69.1399L450.952 49.4404ZM9.74717 128.348H4.47344L4.51448 123.382H9.74717C11.1973 123.382 12.3259 123.122 13.133 122.602C13.9402 122.082 14.5079 121.262 14.8362 120.14C15.1782 119.018 15.3492 117.547 15.3492 115.728V111.07C15.3492 109.688 15.2603 108.518 15.0825 107.561C14.9046 106.59 14.6037 105.81 14.1796 105.222C13.7555 104.62 13.1877 104.175 12.4764 103.888C11.765 103.6 10.8826 103.457 9.82925 103.457H4.37084V98.4703H9.82925C11.553 98.4703 13.1193 98.7508 14.5284 99.3117C15.9375 99.8726 17.1482 100.693 18.1605 101.774C19.1729 102.841 19.9526 104.161 20.4998 105.735C21.047 107.308 21.3206 109.1 21.3206 111.111V115.728C21.3206 117.753 21.047 119.545 20.4998 121.104C19.9526 122.664 19.1729 123.984 18.1605 125.065C17.1619 126.132 15.9512 126.946 14.5284 127.507C13.1057 128.068 11.5119 128.348 9.74717 128.348ZM7.9619 98.4703V128.348H1.94943V98.4703H7.9619ZM45.8638 111.09V116.077C45.8638 118.184 45.6039 120.03 45.084 121.617C44.5779 123.191 43.8528 124.511 42.9089 125.578C41.9786 126.631 40.85 127.425 39.523 127.958C38.2097 128.492 36.7528 128.758 35.1522 128.758C33.5516 128.758 32.0878 128.492 30.7608 127.958C29.4475 127.425 28.3121 126.631 27.3545 125.578C26.4105 124.511 25.6786 123.191 25.1588 121.617C24.6389 120.03 24.379 118.184 24.379 116.077V111.09C24.379 108.929 24.6321 107.041 25.1383 105.427C25.6444 103.799 26.3763 102.444 27.3339 101.364C28.2915 100.269 29.427 99.4485 30.7403 98.9013C32.0536 98.3404 33.5106 98.0599 35.1111 98.0599C36.7117 98.0599 38.1687 98.3404 39.482 98.9013C40.7953 99.4485 41.9307 100.269 42.8884 101.364C43.846 102.444 44.5779 103.799 45.084 105.427C45.6039 107.041 45.8638 108.929 45.8638 111.09ZM39.8924 116.077V111.049C39.8924 109.627 39.7898 108.416 39.5846 107.417C39.3794 106.405 39.0716 105.577 38.6612 104.934C38.2508 104.291 37.7514 103.819 37.1632 103.518C36.5749 103.217 35.8909 103.067 35.1111 103.067C34.3314 103.067 33.6405 103.217 33.0386 103.518C32.4503 103.819 31.951 104.291 31.5406 104.934C31.1439 105.577 30.8429 106.405 30.6377 107.417C30.4462 108.416 30.3504 109.627 30.3504 111.049V116.077C30.3504 117.445 30.453 118.614 30.6582 119.586C30.8634 120.557 31.1712 121.351 31.5816 121.966C31.9921 122.582 32.4914 123.04 33.0796 123.341C33.6816 123.628 34.3724 123.772 35.1522 123.772C35.9183 123.772 36.5955 123.628 37.1837 123.341C37.7856 123.04 38.285 122.582 38.6817 121.966C39.0784 121.351 39.3794 120.557 39.5846 119.586C39.7898 118.614 39.8924 117.445 39.8924 116.077ZM70.2839 98.4703V128.348H64.4766L55.0988 109.654V128.348H49.3941V98.4703H55.1193L64.5792 117.37V98.4703H70.2839ZM91.4206 123.382V128.348H78.4313V123.382H91.4206ZM80.2986 98.4703V128.348H74.2861V98.4703H80.2986ZM89.6764 110.577V115.4H78.4313V110.577H89.6764ZM91.3796 98.4703V103.457H78.4313V98.4703H91.3796ZM108.33 118.396H114.302C114.22 120.639 113.768 122.534 112.947 124.08C112.126 125.612 110.957 126.775 109.438 127.568C107.934 128.362 106.114 128.758 103.98 128.758C102.325 128.758 100.854 128.485 99.568 127.938C98.2821 127.377 97.1877 126.556 96.2848 125.475C95.3819 124.394 94.6979 123.061 94.2327 121.474C93.7813 119.873 93.5556 118.033 93.5556 115.954V110.885C93.5556 108.806 93.795 106.966 94.2738 105.365C94.7663 103.765 95.464 102.424 96.3669 101.343C97.2834 100.249 98.3847 99.428 99.6706 98.8807C100.97 98.3199 102.434 98.0394 104.062 98.0394C106.237 98.0394 108.057 98.4498 109.52 99.2706C110.984 100.091 112.113 101.288 112.906 102.862C113.713 104.421 114.199 106.33 114.363 108.587H108.351C108.323 107.164 108.166 106.049 107.879 105.242C107.605 104.421 107.167 103.847 106.565 103.518C105.964 103.176 105.129 103.005 104.062 103.005C103.269 103.005 102.585 103.149 102.01 103.436C101.435 103.71 100.963 104.154 100.594 104.77C100.225 105.386 99.9511 106.193 99.7732 107.191C99.6091 108.19 99.527 109.408 99.527 110.844V115.954C99.527 117.363 99.6022 118.567 99.7527 119.565C99.9032 120.55 100.143 121.357 100.471 121.987C100.799 122.616 101.244 123.074 101.805 123.362C102.379 123.649 103.104 123.792 103.98 123.792C104.992 123.792 105.806 123.642 106.422 123.341C107.051 123.04 107.516 122.5 107.817 121.72C108.118 120.94 108.289 119.832 108.33 118.396ZM117.401 125.414C117.401 124.511 117.702 123.758 118.304 123.156C118.906 122.541 119.72 122.233 120.746 122.233C121.772 122.233 122.586 122.541 123.188 123.156C123.79 123.758 124.091 124.511 124.091 125.414C124.091 126.316 123.79 127.069 123.188 127.671C122.586 128.273 121.772 128.574 120.746 128.574C119.72 128.574 118.906 128.273 118.304 127.671C117.702 127.069 117.401 126.316 117.401 125.414Z" fill="#222222"/>
</svg>
