<svg width="874" height="85" viewBox="0 0 874 85" fill="none" xmlns="http://www.w3.org/2000/svg">
<path d="M16.5754 25.335V30.2994H4.16437V25.335H16.5754ZM6.01065 0.430797V30.2994H0V0.430797H6.01065ZM38.8957 13.047V18.0319C38.8957 20.1381 38.6358 21.9843 38.1161 23.5708C37.6101 25.1435 36.8853 26.4633 35.9416 27.53C35.0117 28.5831 33.8834 29.3763 32.5568 29.9096C31.2439 30.443 29.7874 30.7097 28.1873 30.7097C26.5872 30.7097 25.1238 30.443 23.7972 29.9096C22.4843 29.3763 21.3492 28.5831 20.3919 27.53C19.4482 26.4633 18.7166 25.1435 18.1969 23.5708C17.6772 21.9843 17.4173 20.1381 17.4173 18.0319V13.047C17.4173 10.8862 17.6703 8.99888 18.1764 7.3851C18.6824 5.75764 19.4141 4.40371 20.3714 3.32329C21.3287 2.22921 22.4638 1.40864 23.7767 0.861595C25.0896 0.300874 26.5461 0.0205142 28.1462 0.0205142C29.7464 0.0205142 31.2029 0.300874 32.5158 0.861595C33.8287 1.40864 34.9638 2.22921 35.9211 3.32329C36.8784 4.40371 37.6101 5.75764 38.1161 7.3851C38.6358 8.99888 38.8957 10.8862 38.8957 13.047ZM32.926 18.0319V13.006C32.926 11.5837 32.8235 10.3733 32.6183 9.37497C32.4132 8.36294 32.1055 7.53553 31.6952 6.89276C31.2849 6.24998 30.7857 5.77815 30.1977 5.47728C29.6096 5.17641 28.9258 5.02597 28.1462 5.02597C27.3667 5.02597 26.6761 5.17641 26.0743 5.47728C25.4862 5.77815 24.9871 6.24998 24.5768 6.89276C24.1802 7.53553 23.8793 8.36294 23.6742 9.37497C23.4827 10.3733 23.387 11.5837 23.387 13.006V18.0319C23.387 19.3996 23.4895 20.5689 23.6947 21.5399C23.8998 22.5109 24.2075 23.3041 24.6178 23.9195C25.0281 24.5349 25.5273 24.9931 26.1153 25.294C26.7171 25.5812 27.4077 25.7248 28.1873 25.7248C28.9531 25.7248 29.6301 25.5812 30.2182 25.294C30.8199 24.9931 31.3191 24.5349 31.7157 23.9195C32.1123 23.3041 32.4132 22.5109 32.6183 21.5399C32.8235 20.5689 32.926 19.3996 32.926 18.0319ZM42.4454 0.430797H52.0255C54.0223 0.430797 55.7249 0.7727 57.1336 1.45651C58.5422 2.14031 59.6226 3.15234 60.3748 4.4926C61.127 5.83286 61.5031 7.48767 61.5031 9.45703C61.5031 11.0708 61.2843 12.4521 60.8466 13.6009C60.409 14.736 59.7867 15.6865 58.9798 16.4524C58.173 17.2045 57.2088 17.8063 56.0874 18.2576L54.2616 19.3449H46.4867L46.4662 14.3599H51.8614C52.682 14.3599 53.359 14.1821 53.8923 13.8265C54.4394 13.4573 54.8428 12.9444 55.1027 12.288C55.3762 11.6179 55.513 10.8383 55.513 9.94937C55.513 9.00572 55.3899 8.19883 55.1437 7.5287C54.9112 6.84489 54.5351 6.3252 54.0154 5.96962C53.5094 5.60037 52.8461 5.41574 52.0255 5.41574H48.4561V30.2994H42.4454V0.430797ZM56.0053 30.2994L50.528 16.9857L56.8259 16.9652L62.4262 30.0122V30.2994H56.0053ZM81.977 25.335V30.2994H68.9916V25.335H81.977ZM70.8584 0.430797V30.2994H64.8477V0.430797H70.8584ZM80.2333 12.5342V17.355H68.9916V12.5342H80.2333ZM81.936 0.430797V5.41574H68.9916V0.430797H81.936ZM86.7782 0.430797H92.0503L98.143 20.8629L104.215 0.430797H108.872L100.379 30.2994H95.8865L86.7782 0.430797ZM84.6447 0.430797H89.6707L90.4502 20.1244V30.2994H84.6447V0.430797ZM106.574 0.430797H111.621V30.2994H105.836V20.1244L106.574 0.430797ZM130.762 0.430797V30.2994H124.793V0.430797H130.762ZM145.225 19.7756H139.112V14.7907H145.225C146.087 14.7907 146.785 14.5992 147.318 14.2163C147.851 13.8334 148.241 13.3069 148.487 12.6367C148.733 11.9529 148.856 11.1871 148.856 10.3391C148.856 9.47754 148.733 8.67065 148.487 7.91847C148.241 7.16628 147.851 6.56453 147.318 6.11322C146.785 5.64823 146.087 5.41574 145.225 5.41574H141.061V30.2994H135.05V0.430797H145.225C147.236 0.430797 148.959 0.854757 150.395 1.70268C151.845 2.55059 152.959 3.7199 153.739 5.2106C154.518 6.68762 154.908 8.38345 154.908 10.2981C154.908 12.2264 154.518 13.9018 153.739 15.3241C152.959 16.7327 151.845 17.8268 150.395 18.6063C148.959 19.3859 147.236 19.7756 145.225 19.7756ZM170.725 22.4425C170.725 21.9091 170.678 21.4236 170.582 20.986C170.486 20.5483 170.281 20.1449 169.966 19.7756C169.665 19.4064 169.221 19.0371 168.633 18.6679C168.059 18.2986 167.306 17.9157 166.376 17.5191C165.269 17.0541 164.195 16.5618 163.156 16.0421C162.116 15.5087 161.179 14.8933 160.345 14.1958C159.511 13.4983 158.848 12.6778 158.355 11.7341C157.877 10.7768 157.637 9.65533 157.637 8.36978C157.637 7.11158 157.863 5.96962 158.314 4.94391C158.779 3.9182 159.436 3.04293 160.284 2.3181C161.132 1.57959 162.123 1.01203 163.258 0.615425C164.407 0.218818 165.686 0.0205142 167.094 0.0205142C169.009 0.0205142 170.664 0.417121 172.059 1.21034C173.467 2.00355 174.555 3.0908 175.321 4.47209C176.1 5.85337 176.49 7.4398 176.49 9.23137H170.5C170.5 8.38345 170.377 7.63811 170.13 6.99533C169.898 6.33888 169.522 5.82602 169.002 5.45677C168.483 5.08751 167.812 4.90288 166.992 4.90288C166.226 4.90288 165.59 5.06016 165.084 5.37471C164.592 5.67558 164.222 6.09271 163.976 6.62607C163.744 7.14577 163.627 7.73384 163.627 8.39029C163.627 8.88263 163.744 9.3271 163.976 9.72371C164.222 10.1066 164.557 10.4554 164.981 10.7699C165.405 11.0708 165.905 11.3648 166.479 11.652C167.067 11.9392 167.71 12.2196 168.407 12.4931C169.761 13.0265 170.958 13.6146 171.997 14.2573C173.037 14.8864 173.905 15.5976 174.603 16.3908C175.3 17.1704 175.827 18.0525 176.182 19.0371C176.538 20.0218 176.716 21.1433 176.716 22.4015C176.716 23.646 176.497 24.7811 176.059 25.8068C175.635 26.8188 175.013 27.6941 174.192 28.4326C173.372 29.1575 172.38 29.7182 171.218 30.1148C170.069 30.5114 168.783 30.7097 167.361 30.7097C165.98 30.7097 164.674 30.5182 163.443 30.1353C162.212 29.7387 161.125 29.1438 160.181 28.3506C159.251 27.5437 158.519 26.5248 157.986 25.294C157.453 24.0494 157.186 22.5793 157.186 20.8834H163.197C163.197 21.786 163.286 22.5587 163.463 23.2015C163.641 23.8306 163.915 24.3366 164.284 24.7196C164.653 25.0888 165.105 25.3692 165.638 25.5606C166.185 25.7384 166.807 25.8273 167.505 25.8273C168.298 25.8273 168.927 25.6769 169.392 25.376C169.871 25.0751 170.213 24.6717 170.418 24.1657C170.623 23.6597 170.725 23.0853 170.725 22.4425ZM193.353 0.430797H199.343V20.945C199.343 23.2425 198.92 25.1162 198.072 26.5658C197.237 28.0018 196.082 29.0549 194.605 29.725C193.128 30.3815 191.439 30.7097 189.538 30.7097C187.623 30.7097 185.92 30.3815 184.43 29.725C182.939 29.0549 181.777 28.0018 180.942 26.5658C180.122 25.1162 179.711 23.2425 179.711 20.945V0.430797H185.702V20.945C185.702 22.2442 185.845 23.2425 186.132 23.94C186.433 24.6375 186.864 25.1162 187.425 25.376C187.999 25.6222 188.703 25.7453 189.538 25.7453C190.386 25.7453 191.083 25.6222 191.63 25.376C192.191 25.1162 192.615 24.6375 192.902 23.94C193.203 23.2425 193.353 22.2442 193.353 20.945V0.430797ZM205.232 0.430797H210.504L216.597 20.8629L222.669 0.430797H227.326L218.833 30.2994H214.34L205.232 0.430797ZM203.098 0.430797H208.124L208.904 20.1244V30.2994H203.098V0.430797ZM225.028 0.430797H230.075V30.2994H224.29V20.1244L225.028 0.430797ZM250.775 30.2994H245.503L245.544 25.335H250.775C252.225 25.335 253.353 25.0751 254.16 24.5554C254.967 24.0358 255.534 23.2152 255.862 22.0937C256.204 20.9723 256.375 19.5021 256.375 17.6832V13.0265C256.375 11.6452 256.286 10.4759 256.109 9.51857C255.931 8.54757 255.63 7.76803 255.206 7.17996C254.782 6.57821 254.214 6.13373 253.503 5.84654C252.792 5.55934 251.91 5.41574 250.857 5.41574H245.4V0.430797H250.857C252.58 0.430797 254.146 0.711158 255.555 1.27188C256.963 1.8326 258.174 2.65316 259.186 3.73358C260.198 4.80031 260.977 6.12006 261.524 7.69281C262.071 9.26556 262.345 11.0571 262.345 13.0675V17.6832C262.345 19.7073 262.071 21.4988 261.524 23.0579C260.977 24.617 260.198 25.9367 259.186 27.0171C258.187 28.0839 256.977 28.8976 255.555 29.4583C254.132 30.0191 252.539 30.2994 250.775 30.2994ZM248.99 0.430797V30.2994H242.98V0.430797H248.99ZM286.881 13.047V18.0319C286.881 20.1381 286.621 21.9843 286.101 23.5708C285.595 25.1435 284.87 26.4633 283.927 27.53C282.997 28.5831 281.868 29.3763 280.542 29.9096C279.229 30.443 277.772 30.7097 276.172 30.7097C274.572 30.7097 273.109 30.443 271.782 29.9096C270.469 29.3763 269.334 28.5831 268.377 27.53C267.433 26.4633 266.702 25.1435 266.182 23.5708C265.662 21.9843 265.402 20.1381 265.402 18.0319V13.047C265.402 10.8862 265.655 8.99888 266.161 7.3851C266.667 5.75764 267.399 4.40371 268.356 3.32329C269.314 2.22921 270.449 1.40864 271.762 0.861595C273.075 0.300874 274.531 0.0205142 276.131 0.0205142C277.731 0.0205142 279.188 0.300874 280.501 0.861595C281.814 1.40864 282.949 2.22921 283.906 3.32329C284.863 4.40371 285.595 5.75764 286.101 7.3851C286.621 8.99888 286.881 10.8862 286.881 13.047ZM280.911 18.0319V13.006C280.911 11.5837 280.808 10.3733 280.603 9.37497C280.398 8.36294 280.09 7.53553 279.68 6.89276C279.27 6.24998 278.771 5.77815 278.183 5.47728C277.595 5.17641 276.911 5.02597 276.131 5.02597C275.352 5.02597 274.661 5.17641 274.059 5.47728C273.471 5.77815 272.972 6.24998 272.562 6.89276C272.165 7.53553 271.864 8.36294 271.659 9.37497C271.468 10.3733 271.372 11.5837 271.372 13.006V18.0319C271.372 19.3996 271.475 20.5689 271.68 21.5399C271.885 22.5109 272.193 23.3041 272.603 23.9195C273.013 24.5349 273.512 24.9931 274.1 25.294C274.702 25.5812 275.393 25.7248 276.172 25.7248C276.938 25.7248 277.615 25.5812 278.203 25.294C278.805 24.9931 279.304 24.5349 279.701 23.9195C280.097 23.3041 280.398 22.5109 280.603 21.5399C280.808 20.5689 280.911 19.3996 280.911 18.0319ZM306.985 25.335V30.2994H294.574V25.335H306.985ZM296.421 0.430797V30.2994H290.41V0.430797H296.421ZM329.306 13.047V18.0319C329.306 20.1381 329.046 21.9843 328.526 23.5708C328.02 25.1435 327.295 26.4633 326.352 27.53C325.422 28.5831 324.293 29.3763 322.967 29.9096C321.654 30.443 320.197 30.7097 318.597 30.7097C316.997 30.7097 315.534 30.443 314.207 29.9096C312.894 29.3763 311.759 28.5831 310.802 27.53C309.858 26.4633 309.126 25.1435 308.607 23.5708C308.087 21.9843 307.827 20.1381 307.827 18.0319V13.047C307.827 10.8862 308.08 8.99888 308.586 7.3851C309.092 5.75764 309.824 4.40371 310.781 3.32329C311.739 2.22921 312.874 1.40864 314.187 0.861595C315.5 0.300874 316.956 0.0205142 318.556 0.0205142C320.156 0.0205142 321.613 0.300874 322.926 0.861595C324.239 1.40864 325.374 2.22921 326.331 3.32329C327.288 4.40371 328.02 5.75764 328.526 7.3851C329.046 8.99888 329.306 10.8862 329.306 13.047ZM323.336 18.0319V13.006C323.336 11.5837 323.233 10.3733 323.028 9.37497C322.823 8.36294 322.515 7.53553 322.105 6.89276C321.695 6.24998 321.196 5.77815 320.608 5.47728C320.02 5.17641 319.336 5.02597 318.556 5.02597C317.777 5.02597 317.086 5.17641 316.484 5.47728C315.896 5.77815 315.397 6.24998 314.987 6.89276C314.59 7.53553 314.289 8.36294 314.084 9.37497C313.893 10.3733 313.797 11.5837 313.797 13.006V18.0319C313.797 19.3996 313.899 20.5689 314.105 21.5399C314.31 22.5109 314.617 23.3041 315.028 23.9195C315.438 24.5349 315.937 24.9931 316.525 25.294C317.127 25.5812 317.818 25.7248 318.597 25.7248C319.363 25.7248 320.04 25.5812 320.628 25.294C321.23 24.9931 321.729 24.5349 322.126 23.9195C322.522 23.3041 322.823 22.5109 323.028 21.5399C323.233 20.5689 323.336 19.3996 323.336 18.0319ZM332.855 0.430797H342.435C344.432 0.430797 346.135 0.7727 347.543 1.45651C348.952 2.14031 350.033 3.15234 350.785 4.4926C351.537 5.83286 351.913 7.48767 351.913 9.45703C351.913 11.0708 351.694 12.4521 351.257 13.6009C350.819 14.736 350.197 15.6865 349.39 16.4524C348.583 17.2045 347.619 17.8063 346.497 18.2576L344.672 19.3449H336.897L336.876 14.3599H342.271C343.092 14.3599 343.769 14.1821 344.302 13.8265C344.849 13.4573 345.253 12.9444 345.513 12.288C345.786 11.6179 345.923 10.8383 345.923 9.94937C345.923 9.00572 345.8 8.19883 345.554 7.5287C345.321 6.84489 344.945 6.3252 344.425 5.96962C343.919 5.60037 343.256 5.41574 342.435 5.41574H338.866V30.2994H332.855V0.430797ZM346.415 30.2994L340.938 16.9857L347.236 16.9652L352.836 30.0122V30.2994H346.415ZM376.737 22.4425C376.737 21.9091 376.689 21.4236 376.593 20.986C376.497 20.5483 376.292 20.1449 375.978 19.7756C375.677 19.4064 375.232 19.0371 374.644 18.6679C374.07 18.2986 373.318 17.9157 372.388 17.5191C371.28 17.0541 370.206 16.5618 369.167 16.0421C368.128 15.5087 367.191 14.8933 366.357 14.1958C365.522 13.4983 364.859 12.6778 364.367 11.7341C363.888 10.7768 363.649 9.65533 363.649 8.36978C363.649 7.11158 363.874 5.96962 364.326 4.94391C364.791 3.9182 365.447 3.04293 366.295 2.3181C367.143 1.57959 368.135 1.01203 369.27 0.615425C370.418 0.218818 371.697 0.0205142 373.106 0.0205142C375.02 0.0205142 376.675 0.417121 378.07 1.21034C379.479 2.00355 380.566 3.0908 381.332 4.47209C382.111 5.85337 382.501 7.4398 382.501 9.23137H376.511C376.511 8.38345 376.388 7.63811 376.142 6.99533C375.909 6.33888 375.533 5.82602 375.014 5.45677C374.494 5.08751 373.824 4.90288 373.003 4.90288C372.237 4.90288 371.601 5.06016 371.095 5.37471C370.603 5.67558 370.234 6.09271 369.988 6.62607C369.755 7.14577 369.639 7.73384 369.639 8.39029C369.639 8.88263 369.755 9.3271 369.988 9.72371C370.234 10.1066 370.569 10.4554 370.993 10.7699C371.417 11.0708 371.916 11.3648 372.49 11.652C373.078 11.9392 373.721 12.2196 374.419 12.4931C375.773 13.0265 376.969 13.6146 378.009 14.2573C379.048 14.8864 379.916 15.5976 380.614 16.3908C381.311 17.1704 381.838 18.0525 382.194 19.0371C382.549 20.0218 382.727 21.1433 382.727 22.4015C382.727 23.646 382.508 24.7811 382.07 25.8068C381.647 26.8188 381.024 27.6941 380.204 28.4326C379.383 29.1575 378.392 29.7182 377.229 30.1148C376.08 30.5114 374.795 30.7097 373.372 30.7097C371.991 30.7097 370.685 30.5182 369.454 30.1353C368.223 29.7387 367.136 29.1438 366.193 28.3506C365.263 27.5437 364.531 26.5248 363.997 25.294C363.464 24.0494 363.197 22.5793 363.197 20.8834H369.208C369.208 21.786 369.297 22.5587 369.475 23.2015C369.653 23.8306 369.926 24.3366 370.295 24.7196C370.665 25.0888 371.116 25.3692 371.649 25.5606C372.196 25.7384 372.819 25.8273 373.516 25.8273C374.309 25.8273 374.938 25.6769 375.403 25.376C375.882 25.0751 376.224 24.6717 376.429 24.1657C376.634 23.6597 376.737 23.0853 376.737 22.4425ZM392.185 0.430797V30.2994H386.215V0.430797H392.185ZM407.756 0.430797V30.2994H401.786V0.430797H407.756ZM415.182 0.430797V5.41574H394.504V0.430797H415.182ZM436.252 5.76448L429.831 30.2994H423.492L432.826 0.430797H436.785L436.252 5.76448ZM441.319 30.2994L434.857 5.76448L434.262 0.430797H438.283L447.699 30.2994H441.319ZM441.544 19.1602V24.1452H428.066V19.1602H441.544ZM451.843 0.430797H457.115L463.208 20.8629L469.28 0.430797H473.937L465.444 30.2994H460.952L451.843 0.430797ZM449.71 0.430797H454.736L455.515 20.1244V30.2994H449.71V0.430797ZM471.639 0.430797H476.686V30.2994H470.901V20.1244L471.639 0.430797ZM497.878 25.335V30.2994H484.892V25.335H497.878ZM486.759 0.430797V30.2994H480.748V0.430797H486.759ZM496.134 12.5342V17.355H484.892V12.5342H496.134ZM497.837 0.430797V5.41574H484.892V0.430797H497.837ZM512.854 0.430797V30.2994H506.884V0.430797H512.854ZM520.28 0.430797V5.41574H499.602V0.430797H520.28ZM544.776 20.35H550.745C550.663 22.5929 550.212 24.4871 549.391 26.0325C548.571 27.5642 547.401 28.7267 545.883 29.5199C544.379 30.3131 542.56 30.7097 540.427 30.7097C538.772 30.7097 537.302 30.4362 536.016 29.8891C534.731 29.3284 533.636 28.5078 532.734 27.4274C531.831 26.347 531.147 25.0136 530.682 23.4272C530.231 21.8271 530.005 19.9876 530.005 17.9089V12.8419C530.005 10.7631 530.245 8.92366 530.723 7.32355C531.216 5.72345 531.913 4.38319 532.816 3.30278C533.732 2.20869 534.833 1.38812 536.119 0.841081C537.418 0.28036 538.881 0 540.509 0C542.683 0 544.502 0.410283 545.966 1.23085C547.429 2.05142 548.557 3.24808 549.35 4.82083C550.157 6.3799 550.643 8.28772 550.807 10.5443H544.796C544.769 9.12196 544.612 8.00736 544.324 7.20047C544.051 6.3799 543.613 5.80551 543.011 5.47728C542.41 5.13538 541.575 4.96443 540.509 4.96443C539.716 4.96443 539.032 5.10803 538.457 5.39522C537.883 5.66875 537.411 6.11322 537.042 6.72864C536.673 7.34407 536.399 8.15096 536.221 9.14931C536.057 10.1477 535.975 11.3648 535.975 12.8008V17.9089C535.975 19.3175 536.05 20.521 536.201 21.5194C536.351 22.504 536.591 23.3109 536.919 23.94C537.247 24.5691 537.691 25.0273 538.252 25.3145C538.827 25.6017 539.551 25.7453 540.427 25.7453C541.439 25.7453 542.252 25.5948 542.868 25.294C543.497 24.9931 543.962 24.4529 544.263 23.6733C544.564 22.8938 544.735 21.786 544.776 20.35ZM574.645 13.047V18.0319C574.645 20.1381 574.385 21.9843 573.865 23.5708C573.359 25.1435 572.635 26.4633 571.691 27.53C570.761 28.5831 569.633 29.3763 568.306 29.9096C566.993 30.443 565.537 30.7097 563.937 30.7097C562.337 30.7097 560.873 30.443 559.547 29.9096C558.234 29.3763 557.099 28.5831 556.141 27.53C555.198 26.4633 554.466 25.1435 553.946 23.5708C553.427 21.9843 553.167 20.1381 553.167 18.0319V13.047C553.167 10.8862 553.42 8.99888 553.926 7.3851C554.432 5.75764 555.163 4.40371 556.121 3.32329C557.078 2.22921 558.213 1.40864 559.526 0.861595C560.839 0.300874 562.296 0.0205142 563.896 0.0205142C565.496 0.0205142 566.952 0.300874 568.265 0.861595C569.578 1.40864 570.713 2.22921 571.67 3.32329C572.628 4.40371 573.359 5.75764 573.865 7.3851C574.385 8.99888 574.645 10.8862 574.645 13.047ZM568.675 18.0319V13.006C568.675 11.5837 568.573 10.3733 568.368 9.37497C568.163 8.36294 567.855 7.53553 567.445 6.89276C567.034 6.24998 566.535 5.77815 565.947 5.47728C565.359 5.17641 564.675 5.02597 563.896 5.02597C563.116 5.02597 562.425 5.17641 561.824 5.47728C561.236 5.77815 560.736 6.24998 560.326 6.89276C559.93 7.53553 559.629 8.36294 559.424 9.37497C559.232 10.3733 559.136 11.5837 559.136 13.006V18.0319C559.136 19.3996 559.239 20.5689 559.444 21.5399C559.649 22.5109 559.957 23.3041 560.367 23.9195C560.777 24.5349 561.277 24.9931 561.865 25.294C562.466 25.5812 563.157 25.7248 563.937 25.7248C564.703 25.7248 565.379 25.5812 565.968 25.294C566.569 24.9931 567.068 24.5349 567.465 23.9195C567.862 23.3041 568.163 22.5109 568.368 21.5399C568.573 20.5689 568.675 19.3996 568.675 18.0319ZM599.058 0.430797V30.2994H593.252L583.877 11.611V30.2994H578.174V0.430797H583.898L593.355 19.3243V0.430797H599.058ZM615.696 22.4425C615.696 21.9091 615.648 21.4236 615.552 20.986C615.456 20.5483 615.251 20.1449 614.937 19.7756C614.636 19.4064 614.191 19.0371 613.603 18.6679C613.029 18.2986 612.277 17.9157 611.347 17.5191C610.239 17.0541 609.165 16.5618 608.126 16.0421C607.086 15.5087 606.15 14.8933 605.315 14.1958C604.481 13.4983 603.818 12.6778 603.326 11.7341C602.847 10.7768 602.608 9.65533 602.608 8.36978C602.608 7.11158 602.833 5.96962 603.285 4.94391C603.749 3.9182 604.406 3.04293 605.254 2.3181C606.102 1.57959 607.093 1.01203 608.228 0.615425C609.377 0.218818 610.656 0.0205142 612.065 0.0205142C613.979 0.0205142 615.634 0.417121 617.029 1.21034C618.438 2.00355 619.525 3.0908 620.291 4.47209C621.07 5.85337 621.46 7.4398 621.46 9.23137H615.47C615.47 8.38345 615.347 7.63811 615.101 6.99533C614.868 6.33888 614.492 5.82602 613.972 5.45677C613.453 5.08751 612.783 4.90288 611.962 4.90288C611.196 4.90288 610.56 5.06016 610.054 5.37471C609.562 5.67558 609.193 6.09271 608.946 6.62607C608.714 7.14577 608.598 7.73384 608.598 8.39029C608.598 8.88263 608.714 9.3271 608.946 9.72371C609.193 10.1066 609.528 10.4554 609.952 10.7699C610.376 11.0708 610.875 11.3648 611.449 11.652C612.037 11.9392 612.68 12.2196 613.377 12.4931C614.731 13.0265 615.928 13.6146 616.967 14.2573C618.007 14.8864 618.875 15.5976 619.573 16.3908C620.27 17.1704 620.797 18.0525 621.152 19.0371C621.508 20.0218 621.686 21.1433 621.686 22.4015C621.686 23.646 621.467 24.7811 621.029 25.8068C620.605 26.8188 619.983 27.6941 619.162 28.4326C618.342 29.1575 617.35 29.7182 616.188 30.1148C615.039 30.5114 613.754 30.7097 612.331 30.7097C610.95 30.7097 609.644 30.5182 608.413 30.1353C607.182 29.7387 606.095 29.1438 605.151 28.3506C604.221 27.5437 603.49 26.5248 602.956 25.294C602.423 24.0494 602.156 22.5793 602.156 20.8834H608.167C608.167 21.786 608.256 22.5587 608.434 23.2015C608.611 23.8306 608.885 24.3366 609.254 24.7196C609.623 25.0888 610.075 25.3692 610.608 25.5606C611.155 25.7384 611.777 25.8273 612.475 25.8273C613.268 25.8273 613.897 25.6769 614.362 25.376C614.841 25.0751 615.183 24.6717 615.388 24.1657C615.593 23.6597 615.696 23.0853 615.696 22.4425ZM642.037 25.335V30.2994H629.051V25.335H642.037ZM630.918 0.430797V30.2994H624.907V0.430797H630.918ZM640.293 12.5342V17.355H629.051V12.5342H640.293ZM641.996 0.430797V5.41574H629.051V0.430797H641.996ZM658.941 20.35H664.911C664.829 22.5929 664.377 24.4871 663.557 26.0325C662.736 27.5642 661.567 28.7267 660.049 29.5199C658.544 30.3131 656.725 30.7097 654.592 30.7097C652.937 30.7097 651.467 30.4362 650.181 29.8891C648.896 29.3284 647.802 28.5078 646.899 27.4274C645.997 26.347 645.313 25.0136 644.848 23.4272C644.396 21.8271 644.171 19.9876 644.171 17.9089V12.8419C644.171 10.7631 644.41 8.92366 644.889 7.32355C645.381 5.72345 646.079 4.38319 646.981 3.30278C647.898 2.20869 648.998 1.38812 650.284 0.841081C651.583 0.28036 653.047 0 654.674 0C656.849 0 658.667 0.410283 660.131 1.23085C661.594 2.05142 662.722 3.24808 663.516 4.82083C664.323 6.3799 664.808 8.28772 664.972 10.5443H658.962C658.934 9.12196 658.777 8.00736 658.49 7.20047C658.216 6.3799 657.779 5.80551 657.177 5.47728C656.575 5.13538 655.741 4.96443 654.674 4.96443C653.881 4.96443 653.197 5.10803 652.623 5.39522C652.048 5.66875 651.576 6.11322 651.207 6.72864C650.838 7.34407 650.564 8.15096 650.387 9.14931C650.222 10.1477 650.14 11.3648 650.14 12.8008V17.9089C650.14 19.3175 650.216 20.521 650.366 21.5194C650.517 22.504 650.756 23.3109 651.084 23.94C651.412 24.5691 651.857 25.0273 652.418 25.3145C652.992 25.6017 653.717 25.7453 654.592 25.7453C655.604 25.7453 656.418 25.5948 657.033 25.294C657.662 24.9931 658.127 24.4529 658.428 23.6733C658.729 22.8938 658.9 21.786 658.941 20.35ZM679.107 0.430797V30.2994H673.138V0.430797H679.107ZM686.533 0.430797V5.41574H665.855V0.430797H686.533ZM706.31 25.335V30.2994H693.324V25.335H706.31ZM695.191 0.430797V30.2994H689.181V0.430797H695.191ZM704.566 12.5342V17.355H693.324V12.5342H704.566ZM706.269 0.430797V5.41574H693.324V0.430797H706.269ZM721.286 0.430797V30.2994H715.316V0.430797H721.286ZM728.712 0.430797V5.41574H708.034V0.430797H728.712ZM744.776 0.430797H750.766V20.945C750.766 23.2425 750.342 25.1162 749.494 26.5658C748.66 28.0018 747.504 29.0549 746.027 29.725C744.55 30.3815 742.861 30.7097 740.96 30.7097C739.045 30.7097 737.343 30.3815 735.852 29.725C734.361 29.0549 733.199 28.0018 732.364 26.5658C731.544 25.1162 731.134 23.2425 731.134 20.945V0.430797H737.124V20.945C737.124 22.2442 737.267 23.2425 737.555 23.94C737.855 24.6375 738.286 25.1162 738.847 25.376C739.421 25.6222 740.126 25.7453 740.96 25.7453C741.808 25.7453 742.505 25.6222 743.052 25.376C743.613 25.1162 744.037 24.6375 744.324 23.94C744.625 23.2425 744.776 22.2442 744.776 20.945V0.430797ZM754.541 0.430797H764.121C766.118 0.430797 767.821 0.7727 769.229 1.45651C770.638 2.14031 771.718 3.15234 772.471 4.4926C773.223 5.83286 773.599 7.48767 773.599 9.45703C773.599 11.0708 773.38 12.4521 772.942 13.6009C772.505 14.736 771.882 15.6865 771.076 16.4524C770.269 17.2045 769.304 17.8063 768.183 18.2576L766.357 19.3449H758.582L758.562 14.3599H763.957C764.778 14.3599 765.455 14.1821 765.988 13.8265C766.535 13.4573 766.939 12.9444 767.198 12.288C767.472 11.6179 767.609 10.8383 767.609 9.94937C767.609 9.00572 767.486 8.19883 767.239 7.5287C767.007 6.84489 766.631 6.3252 766.111 5.96962C765.605 5.60037 764.942 5.41574 764.121 5.41574H760.552V30.2994H754.541V0.430797ZM768.101 30.2994L762.624 16.9857L768.922 16.9652L774.522 30.0122V30.2994H768.101ZM777.128 27.3659C777.128 26.4633 777.429 25.7111 778.031 25.1093C778.632 24.4939 779.446 24.1862 780.472 24.1862C781.498 24.1862 782.311 24.4939 782.913 25.1093C783.515 25.7111 783.816 26.4633 783.816 27.3659C783.816 28.2685 783.515 29.0207 782.913 29.6224C782.311 30.2242 781.498 30.5251 780.472 30.5251C779.446 30.5251 778.632 30.2242 778.031 29.6224C777.429 29.0207 777.128 28.2685 777.128 27.3659ZM811.122 25.7453L818.261 32.1867L814.486 35.6536L807.511 29.2122L811.122 25.7453ZM818.137 13.047V17.6832C818.137 19.8304 817.884 21.7245 817.378 23.3656C816.872 24.9931 816.141 26.3539 815.183 27.4479C814.226 28.5284 813.091 29.3421 811.778 29.8891C810.465 30.4362 809.009 30.7097 807.409 30.7097C805.808 30.7097 804.345 30.4362 803.019 29.8891C801.706 29.3421 800.571 28.5284 799.613 27.4479C798.67 26.3539 797.931 24.9931 797.398 23.3656C796.878 21.7245 796.618 19.8304 796.618 17.6832V13.047C796.618 10.8862 796.878 8.99888 797.398 7.3851C797.917 5.75764 798.649 4.40371 799.593 3.32329C800.55 2.22921 801.685 1.40864 802.998 0.861595C804.311 0.300874 805.767 0.0205142 807.368 0.0205142C808.981 0.0205142 810.445 0.300874 811.758 0.861595C813.07 1.40864 814.206 2.22921 815.163 3.32329C816.134 4.40371 816.872 5.75764 817.378 7.3851C817.884 8.99888 818.137 10.8862 818.137 13.047ZM812.147 17.6832V13.006C812.147 11.5837 812.045 10.3733 811.84 9.37497C811.634 8.36294 811.327 7.53553 810.916 6.89276C810.52 6.24998 810.021 5.77815 809.419 5.47728C808.831 5.17641 808.147 5.02597 807.368 5.02597C806.602 5.02597 805.918 5.17641 805.316 5.47728C804.714 5.77815 804.215 6.24998 803.819 6.89276C803.436 7.53553 803.135 8.36294 802.916 9.37497C802.711 10.3733 802.608 11.5837 802.608 13.006V17.6832C802.608 19.1055 802.711 20.3295 802.916 21.3552C803.135 22.3673 803.442 23.1947 803.839 23.8375C804.236 24.4802 804.735 24.9589 805.337 25.2734C805.938 25.5743 806.629 25.7248 807.409 25.7248C808.174 25.7248 808.851 25.5743 809.439 25.2734C810.041 24.9589 810.54 24.4802 810.937 23.8375C811.347 23.1947 811.648 22.3673 811.84 21.3552C812.045 20.3295 812.147 19.1055 812.147 17.6832ZM835.104 0.430797H841.094V20.945C841.094 23.2425 840.67 25.1162 839.822 26.5658C838.988 28.0018 837.832 29.0549 836.355 29.725C834.878 30.3815 833.189 30.7097 831.288 30.7097C829.373 30.7097 827.671 30.3815 826.18 29.725C824.689 29.0549 823.527 28.0018 822.692 26.5658C821.872 25.1162 821.462 23.2425 821.462 20.945V0.430797H827.452V20.945C827.452 22.2442 827.595 23.2425 827.883 23.94C828.183 24.6375 828.614 25.1162 829.175 25.376C829.749 25.6222 830.454 25.7453 831.288 25.7453C832.136 25.7453 832.833 25.6222 833.38 25.376C833.941 25.1162 834.365 24.6375 834.652 23.94C834.953 23.2425 835.104 22.2442 835.104 20.945V0.430797ZM851.085 0.430797V30.2994H845.115V0.430797H851.085ZM868.01 22.4425C868.01 21.9091 867.962 21.4236 867.866 20.986C867.771 20.5483 867.565 20.1449 867.251 19.7756C866.95 19.4064 866.505 19.0371 865.917 18.6679C865.343 18.2986 864.591 17.9157 863.661 17.5191C862.553 17.0541 861.479 16.5618 860.44 16.0421C859.401 15.5087 858.464 14.8933 857.63 14.1958C856.795 13.4983 856.132 12.6778 855.64 11.7341C855.161 10.7768 854.922 9.65533 854.922 8.36978C854.922 7.11158 855.147 5.96962 855.599 4.94391C856.064 3.9182 856.72 3.04293 857.568 2.3181C858.416 1.57959 859.408 1.01203 860.543 0.615425C861.691 0.218818 862.97 0.0205142 864.379 0.0205142C866.293 0.0205142 867.948 0.417121 869.343 1.21034C870.752 2.00355 871.839 3.0908 872.605 4.47209C873.385 5.85337 873.774 7.4398 873.774 9.23137H867.784C867.784 8.38345 867.661 7.63811 867.415 6.99533C867.182 6.33888 866.806 5.82602 866.287 5.45677C865.767 5.08751 865.097 4.90288 864.276 4.90288C863.51 4.90288 862.874 5.06016 862.368 5.37471C861.876 5.67558 861.507 6.09271 861.261 6.62607C861.028 7.14577 860.912 7.73384 860.912 8.39029C860.912 8.88263 861.028 9.3271 861.261 9.72371C861.507 10.1066 861.842 10.4554 862.266 10.7699C862.69 11.0708 863.189 11.3648 863.763 11.652C864.351 11.9392 864.994 12.2196 865.692 12.4931C867.046 13.0265 868.242 13.6146 869.282 14.2573C870.321 14.8864 871.19 15.5976 871.887 16.3908C872.584 17.1704 873.111 18.0525 873.467 19.0371C873.822 20.0218 874 21.1433 874 22.4015C874 23.646 873.781 24.7811 873.344 25.8068C872.92 26.8188 872.297 27.6941 871.477 28.4326C870.656 29.1575 869.665 29.7182 868.502 30.1148C867.353 30.5114 866.068 30.7097 864.646 30.7097C863.264 30.7097 861.958 30.5182 860.727 30.1353C859.496 29.7387 858.409 29.1438 857.466 28.3506C856.536 27.5437 855.804 26.5248 855.271 25.294C854.737 24.0494 854.47 22.5793 854.47 20.8834H860.481C860.481 21.786 860.57 22.5587 860.748 23.2015C860.926 23.8306 861.199 24.3366 861.568 24.7196C861.938 25.0888 862.389 25.3692 862.922 25.5606C863.469 25.7384 864.092 25.8273 864.789 25.8273C865.582 25.8273 866.211 25.6769 866.676 25.376C867.155 25.0751 867.497 24.6717 867.702 24.1657C867.907 23.6597 868.01 23.0853 868.01 22.4425ZM19.0068 54.7796L12.5858 79.3146H6.24696L15.5809 49.446H19.5401L19.0068 54.7796ZM24.0738 79.3146L17.6118 54.7796L17.0169 49.446H21.0377L30.4537 79.3146H24.0738ZM24.2994 68.1754V73.1603H10.8216V68.1754H24.2994ZM40.2603 79.3146H34.9881L35.0291 74.3501H40.2603C41.7099 74.3501 42.8382 74.0903 43.6451 73.5706C44.452 73.0509 45.0195 72.2304 45.3478 71.1089C45.6897 69.9875 45.8606 68.5173 45.8606 66.6984V62.0417C45.8606 60.6604 45.7717 59.4911 45.5939 58.5337C45.4161 57.5627 45.1153 56.7832 44.6913 56.1951C44.2674 55.5934 43.6998 55.1489 42.9886 54.8617C42.2775 54.5745 41.3954 54.4309 40.3423 54.4309H34.8855V49.446H40.3423C42.0655 49.446 43.6314 49.7263 45.0401 50.287C46.4487 50.8478 47.659 51.6683 48.6711 52.7487C49.6831 53.8155 50.4626 55.1352 51.0097 56.708C51.5567 58.2807 51.8302 60.0723 51.8302 62.0827V66.6984C51.8302 68.7224 51.5567 70.514 51.0097 72.0731C50.4626 73.6322 49.6831 74.9519 48.6711 76.0323C47.6727 77.099 46.4624 77.9128 45.0401 78.4735C43.6177 79.0342 42.0245 79.3146 40.2603 79.3146ZM38.4755 49.446V79.3146H32.4649V49.446H38.4755ZM61.6163 49.446V79.3146H55.6467V49.446H61.6163ZM76.0796 68.7908H69.9664V63.8059H76.0796C76.9412 63.8059 77.6387 63.6144 78.1721 63.2315C78.7054 62.8485 79.0952 62.322 79.3414 61.6519C79.5875 60.9681 79.7106 60.2022 79.7106 59.3543C79.7106 58.4927 79.5875 57.6858 79.3414 56.9336C79.0952 56.1814 78.7054 55.5797 78.1721 55.1284C77.6387 54.6634 76.9412 54.4309 76.0796 54.4309H71.9152V79.3146H65.9046V49.446H76.0796C78.09 49.446 79.8132 49.8699 81.2492 50.7178C82.6988 51.5658 83.8135 52.7351 84.593 54.2258C85.3725 55.7028 85.7623 57.3986 85.7623 59.3133C85.7623 61.2416 85.3725 62.9169 84.593 64.3392C83.8135 65.7479 82.6988 66.842 81.2492 67.6215C79.8132 68.401 78.09 68.7908 76.0796 68.7908ZM95.1791 49.446V79.3146H89.2095V49.446H95.1791ZM112.104 71.4577C112.104 70.9243 112.056 70.4388 111.961 70.0011C111.865 69.5635 111.66 69.1601 111.345 68.7908C111.044 68.4216 110.6 68.0523 110.012 67.683C109.437 67.3138 108.685 66.9309 107.755 66.5343C106.647 66.0693 105.574 65.5769 104.534 65.0572C103.495 64.5239 102.558 63.9084 101.724 63.211C100.89 62.5135 100.226 61.6929 99.7341 60.7493C99.2554 59.7919 99.0161 58.6705 99.0161 57.3849C99.0161 56.1267 99.2417 54.9848 99.6931 53.9591C100.158 52.9334 100.814 52.0581 101.662 51.3333C102.51 50.5948 103.502 50.0272 104.637 49.6306C105.786 49.234 107.064 49.0357 108.473 49.0357C110.388 49.0357 112.043 49.4323 113.438 50.2255C114.846 51.0187 115.933 52.106 116.699 53.4873C117.479 54.8685 117.869 56.455 117.869 58.2465H111.878C111.878 57.3986 111.755 56.6533 111.509 56.0105C111.277 55.354 110.901 54.8412 110.381 54.4719C109.861 54.1027 109.191 53.918 108.371 53.918C107.605 53.918 106.969 54.0753 106.463 54.3899C105.97 54.6907 105.601 55.1079 105.355 55.6412C105.122 56.1609 105.006 56.749 105.006 57.4055C105.006 57.8978 105.122 58.3423 105.355 58.7389C105.601 59.1218 105.936 59.4705 106.36 59.7851C106.784 60.086 107.283 60.38 107.858 60.6672C108.446 60.9544 109.089 61.2348 109.786 61.5083C111.14 62.0417 112.337 62.6297 113.376 63.2725C114.415 63.9016 115.284 64.6128 115.981 65.406C116.679 66.1855 117.205 67.0676 117.561 68.0523C117.916 69.037 118.094 70.1584 118.094 71.4166C118.094 72.6612 117.875 73.7963 117.438 74.822C117.014 75.834 116.392 76.7093 115.571 77.4478C114.75 78.1726 113.759 78.7333 112.596 79.1299C111.448 79.5266 110.162 79.7249 108.74 79.7249C107.359 79.7249 106.052 79.5334 104.822 79.1505C103.591 78.7539 102.503 78.1589 101.56 77.3657C100.63 76.5588 99.8982 75.54 99.3648 74.3091C98.8315 73.0646 98.5648 71.5944 98.5648 69.8986H104.575C104.575 70.8012 104.664 71.5739 104.842 72.2167C105.02 72.8458 105.293 73.3518 105.663 73.7347C106.032 74.104 106.483 74.3843 107.017 74.5758C107.564 74.7536 108.186 74.8425 108.883 74.8425C109.677 74.8425 110.306 74.6921 110.771 74.3912C111.249 74.0903 111.591 73.6869 111.796 73.1808C112.002 72.6748 112.104 72.1004 112.104 71.4577ZM135.553 69.3652H141.522C141.44 71.6081 140.989 73.5022 140.168 75.0476C139.348 76.5794 138.178 77.7418 136.66 78.535C135.156 79.3283 133.337 79.7249 131.204 79.7249C129.549 79.7249 128.079 79.4513 126.793 78.9043C125.508 78.3436 124.413 77.523 123.511 76.4426C122.608 75.3622 121.924 74.0288 121.459 72.4423C121.008 70.8422 120.782 69.0028 120.782 66.924V61.857C120.782 59.7783 121.022 57.9388 121.5 56.3387C121.993 54.7386 122.69 53.3984 123.593 52.3179C124.509 51.2239 125.61 50.4033 126.896 49.8562C128.195 49.2955 129.658 49.0152 131.286 49.0152C133.46 49.0152 135.279 49.4254 136.742 50.246C138.206 51.0666 139.334 52.2632 140.127 53.836C140.934 55.3951 141.42 57.3029 141.584 59.5594H135.573C135.546 58.1371 135.389 57.0225 135.101 56.2156C134.828 55.3951 134.39 54.8207 133.788 54.4924C133.187 54.1505 132.352 53.9796 131.286 53.9796C130.492 53.9796 129.809 54.1232 129.234 54.4104C128.66 54.6839 128.188 55.1284 127.819 55.7438C127.45 56.3592 127.176 57.1661 126.998 58.1645C126.834 59.1628 126.752 60.38 126.752 61.816V66.924C126.752 68.3327 126.827 69.5362 126.978 70.5345C127.128 71.5192 127.367 72.3261 127.696 72.9552C128.024 73.5843 128.468 74.0424 129.029 74.3296C129.604 74.6168 130.328 74.7604 131.204 74.7604C132.216 74.7604 133.029 74.61 133.645 74.3091C134.274 74.0082 134.739 73.468 135.04 72.6885C135.341 71.909 135.512 70.8012 135.553 69.3652ZM150.672 49.446V79.3146H144.703V49.446H150.672ZM175.844 49.446V79.3146H170.039L160.664 60.6262V79.3146H154.961V49.446H160.684L170.141 68.3395V49.446H175.844ZM200.134 63.6212V75.9297C199.71 76.3811 199.087 76.9076 198.267 77.5093C197.46 78.0974 196.4 78.6171 195.087 79.0684C193.788 79.506 192.202 79.7249 190.328 79.7249C188.673 79.7249 187.169 79.465 185.815 78.9453C184.475 78.4256 183.319 77.6393 182.348 76.5862C181.391 75.5195 180.659 74.1929 180.153 72.6064C179.647 71.0063 179.394 69.1122 179.394 66.924V61.8365C179.394 59.6757 179.633 57.7952 180.112 56.1951C180.604 54.5813 181.315 53.2411 182.245 52.1743C183.175 51.1076 184.283 50.3144 185.569 49.7947C186.868 49.275 188.331 49.0152 189.959 49.0152C192.202 49.0152 194.041 49.3913 195.477 50.1434C196.927 50.8956 198.021 52.0102 198.759 53.4873C199.511 54.9643 199.963 56.7764 200.113 58.9235H194.308C194.212 57.6653 194 56.6806 193.672 55.9695C193.357 55.2583 192.913 54.7523 192.338 54.4514C191.764 54.1369 191.019 53.9796 190.102 53.9796C189.309 53.9796 188.618 54.1232 188.03 54.4104C187.442 54.6839 186.95 55.1352 186.553 55.7643C186.157 56.3934 185.863 57.2003 185.671 58.185C185.48 59.1697 185.384 60.3732 185.384 61.7955V66.924C185.384 68.3327 185.493 69.5362 185.712 70.5345C185.931 71.5329 186.252 72.3466 186.676 72.9757C187.114 73.6048 187.661 74.063 188.318 74.3501C188.988 74.6237 189.774 74.7604 190.677 74.7604C191.401 74.7604 191.983 74.6852 192.42 74.5348C192.858 74.3843 193.207 74.2271 193.467 74.063C193.74 73.8852 193.966 73.7484 194.144 73.6527V68.1549H189.856V63.6212H200.134ZM222.639 68.7908H216.526V63.8059H222.639C223.501 63.8059 224.198 63.6144 224.732 63.2315C225.265 62.8485 225.655 62.322 225.901 61.6519C226.147 60.9681 226.27 60.2022 226.27 59.3543C226.27 58.4927 226.147 57.6858 225.901 56.9336C225.655 56.1814 225.265 55.5797 224.732 55.1284C224.198 54.6634 223.501 54.4309 222.639 54.4309H218.475V79.3146H212.464V49.446H222.639C224.65 49.446 226.373 49.8699 227.809 50.7178C229.259 51.5658 230.373 52.7351 231.153 54.2258C231.932 55.7028 232.322 57.3986 232.322 59.3133C232.322 61.2416 231.932 62.9169 231.153 64.3392C230.373 65.7479 229.259 66.842 227.809 67.6215C226.373 68.401 224.65 68.7908 222.639 68.7908ZM248.919 49.446H254.909V69.9601C254.909 72.2577 254.485 74.1313 253.637 75.581C252.803 77.017 251.647 78.0701 250.17 78.7402C248.693 79.3966 247.004 79.7249 245.103 79.7249C243.189 79.7249 241.486 79.3966 239.995 78.7402C238.504 78.0701 237.342 77.017 236.508 75.581C235.687 74.1313 235.277 72.2577 235.277 69.9601V49.446H241.267V69.9601C241.267 71.2593 241.411 72.2577 241.698 72.9552C241.999 73.6527 242.429 74.1313 242.99 74.3912C243.565 74.6373 244.269 74.7604 245.103 74.7604C245.951 74.7604 246.649 74.6373 247.196 74.3912C247.756 74.1313 248.18 73.6527 248.467 72.9552C248.768 72.2577 248.919 71.2593 248.919 69.9601V49.446ZM258.684 49.446H268.264C270.261 49.446 271.964 49.7879 273.373 50.4717C274.781 51.1555 275.862 52.1675 276.614 53.5078C277.366 54.848 277.742 56.5028 277.742 58.4722C277.742 60.086 277.523 61.4673 277.086 62.6161C276.648 63.7512 276.026 64.7017 275.219 65.4675C274.412 66.2197 273.448 66.8215 272.326 67.2728L270.501 68.36H262.726L262.705 63.3751H268.1C268.921 63.3751 269.598 63.1973 270.131 62.8417C270.678 62.4725 271.082 61.9596 271.342 61.3031C271.615 60.633 271.752 59.8535 271.752 58.9645C271.752 58.0209 271.629 57.214 271.383 56.5439C271.15 55.8601 270.774 55.3404 270.254 54.9848C269.748 54.6155 269.085 54.4309 268.264 54.4309H264.695V79.3146H258.684V49.446ZM272.244 79.3146L266.767 66.0009L273.065 65.9804L278.665 79.0274V79.3146H272.244ZM294.503 49.446H300.493V69.9601C300.493 72.2577 300.069 74.1313 299.221 75.581C298.387 77.017 297.231 78.0701 295.754 78.7402C294.277 79.3966 292.588 79.7249 290.687 79.7249C288.773 79.7249 287.07 79.3966 285.579 78.7402C284.089 78.0701 282.926 77.017 282.092 75.581C281.271 74.1313 280.861 72.2577 280.861 69.9601V49.446H286.851V69.9601C286.851 71.2593 286.995 72.2577 287.282 72.9552C287.583 73.6527 288.014 74.1313 288.574 74.3912C289.149 74.6373 289.853 74.7604 290.687 74.7604C291.535 74.7604 292.233 74.6373 292.78 74.3912C293.34 74.1313 293.764 73.6527 294.052 72.9552C294.352 72.2577 294.503 71.2593 294.503 69.9601V49.446ZM316.885 71.4577C316.885 70.9243 316.837 70.4388 316.741 70.0011C316.645 69.5635 316.44 69.1601 316.126 68.7908C315.825 68.4216 315.38 68.0523 314.792 67.683C314.218 67.3138 313.466 66.9309 312.536 66.5343C311.428 66.0693 310.354 65.5769 309.315 65.0572C308.276 64.5239 307.339 63.9084 306.504 63.211C305.67 62.5135 305.007 61.6929 304.515 60.7493C304.036 59.7919 303.797 58.6705 303.797 57.3849C303.797 56.1267 304.022 54.9848 304.474 53.9591C304.939 52.9334 305.595 52.0581 306.443 51.3333C307.291 50.5948 308.282 50.0272 309.418 49.6306C310.566 49.234 311.845 49.0357 313.254 49.0357C315.168 49.0357 316.823 49.4323 318.218 50.2255C319.627 51.0187 320.714 52.106 321.48 53.4873C322.259 54.8685 322.649 56.455 322.649 58.2465H316.659C316.659 57.3986 316.536 56.6533 316.29 56.0105C316.057 55.354 315.681 54.8412 315.161 54.4719C314.642 54.1027 313.972 53.918 313.151 53.918C312.385 53.918 311.749 54.0753 311.243 54.3899C310.751 54.6907 310.382 55.1079 310.135 55.6412C309.903 56.1609 309.787 56.749 309.787 57.4055C309.787 57.8978 309.903 58.3423 310.135 58.7389C310.382 59.1218 310.717 59.4705 311.141 59.7851C311.565 60.086 312.064 60.38 312.638 60.6672C313.226 60.9544 313.869 61.2348 314.567 61.5083C315.92 62.0417 317.117 62.6297 318.157 63.2725C319.196 63.9016 320.064 64.6128 320.762 65.406C321.459 66.1855 321.986 67.0676 322.341 68.0523C322.697 69.037 322.875 70.1584 322.875 71.4166C322.875 72.6612 322.656 73.7963 322.218 74.822C321.794 75.834 321.172 76.7093 320.352 77.4478C319.531 78.1726 318.539 78.7333 317.377 79.1299C316.228 79.5266 314.943 79.7249 313.52 79.7249C312.139 79.7249 310.833 79.5334 309.602 79.1505C308.371 78.7539 307.284 78.1589 306.34 77.3657C305.41 76.5588 304.679 75.54 304.145 74.3091C303.612 73.0646 303.345 71.5944 303.345 69.8986H309.356C309.356 70.8012 309.445 71.5739 309.623 72.2167C309.8 72.8458 310.074 73.3518 310.443 73.7347C310.812 74.104 311.264 74.3843 311.797 74.5758C312.344 74.7536 312.966 74.8425 313.664 74.8425C314.457 74.8425 315.086 74.6921 315.551 74.3912C316.03 74.0903 316.372 73.6869 316.577 73.1808C316.782 72.6748 316.885 72.1004 316.885 71.4577ZM352.068 74.3501V79.3146H339.083V74.3501H352.068ZM340.949 49.446V79.3146H334.939V49.446H340.949ZM350.324 61.5493V66.3701H339.083V61.5493H350.324ZM352.027 49.446V54.4309H339.083V49.446H352.027ZM375.024 63.6212V75.9297C374.6 76.3811 373.978 76.9076 373.157 77.5093C372.351 78.0974 371.291 78.6171 369.978 79.0684C368.679 79.506 367.092 79.7249 365.218 79.7249C363.564 79.7249 362.059 79.465 360.705 78.9453C359.365 78.4256 358.209 77.6393 357.238 76.5862C356.281 75.5195 355.549 74.1929 355.043 72.6064C354.537 71.0063 354.284 69.1122 354.284 66.924V61.8365C354.284 59.6757 354.524 57.7952 355.002 56.1951C355.495 54.5813 356.206 53.2411 357.136 52.1743C358.066 51.1076 359.174 50.3144 360.459 49.7947C361.758 49.275 363.222 49.0152 364.849 49.0152C367.092 49.0152 368.932 49.3913 370.368 50.1434C371.817 50.8956 372.911 52.0102 373.65 53.4873C374.402 54.9643 374.853 56.7764 375.004 58.9235H369.198C369.102 57.6653 368.891 56.6806 368.562 55.9695C368.248 55.2583 367.803 54.7523 367.229 54.4514C366.654 54.1369 365.909 53.9796 364.993 53.9796C364.2 53.9796 363.509 54.1232 362.921 54.4104C362.333 54.6839 361.84 55.1352 361.444 55.7643C361.047 56.3934 360.753 57.2003 360.562 58.185C360.37 59.1697 360.275 60.3732 360.275 61.7955V66.924C360.275 68.3327 360.384 69.5362 360.603 70.5345C360.822 71.5329 361.143 72.3466 361.567 72.9757C362.005 73.6048 362.552 74.063 363.208 74.3501C363.878 74.6237 364.665 74.7604 365.567 74.7604C366.292 74.7604 366.873 74.6852 367.311 74.5348C367.749 74.3843 368.097 74.2271 368.357 74.063C368.631 73.8852 368.856 73.7484 369.034 73.6527V68.1549H364.747V63.6212H375.024ZM395.642 74.3501V79.3146H382.656V74.3501H395.642ZM384.523 49.446V79.3146H378.512V49.446H384.523ZM393.898 61.5493V66.3701H382.656V61.5493H393.898ZM395.601 49.446V54.4309H382.656V49.446H395.601ZM410.946 71.4577C410.946 70.9243 410.898 70.4388 410.803 70.0011C410.707 69.5635 410.502 69.1601 410.187 68.7908C409.886 68.4216 409.442 68.0523 408.854 67.683C408.279 67.3138 407.527 66.9309 406.597 66.5343C405.489 66.0693 404.416 65.5769 403.376 65.0572C402.337 64.5239 401.4 63.9084 400.566 63.211C399.732 62.5135 399.068 61.6929 398.576 60.7493C398.097 59.7919 397.858 58.6705 397.858 57.3849C397.858 56.1267 398.084 54.9848 398.535 53.9591C399 52.9334 399.657 52.0581 400.504 51.3333C401.352 50.5948 402.344 50.0272 403.479 49.6306C404.628 49.234 405.907 49.0357 407.315 49.0357C409.23 49.0357 410.885 49.4323 412.28 50.2255C413.688 51.0187 414.776 52.106 415.541 53.4873C416.321 54.8685 416.711 56.455 416.711 58.2465H410.721C410.721 57.3986 410.597 56.6533 410.351 56.0105C410.119 55.354 409.743 54.8412 409.223 54.4719C408.703 54.1027 408.033 53.918 407.213 53.918C406.447 53.918 405.811 54.0753 405.305 54.3899C404.812 54.6907 404.443 55.1079 404.197 55.6412C403.965 56.1609 403.848 56.749 403.848 57.4055C403.848 57.8978 403.965 58.3423 404.197 58.7389C404.443 59.1218 404.778 59.4705 405.202 59.7851C405.626 60.086 406.125 60.38 406.7 60.6672C407.288 60.9544 407.931 61.2348 408.628 61.5083C409.982 62.0417 411.179 62.6297 412.218 63.2725C413.257 63.9016 414.126 64.6128 414.823 65.406C415.521 66.1855 416.047 67.0676 416.403 68.0523C416.759 69.037 416.936 70.1584 416.936 71.4166C416.936 72.6612 416.718 73.7963 416.28 74.822C415.856 75.834 415.234 76.7093 414.413 77.4478C413.593 78.1726 412.601 78.7333 411.439 79.1299C410.29 79.5266 409.004 79.7249 407.582 79.7249C406.201 79.7249 404.895 79.5334 403.664 79.1505C402.433 78.7539 401.346 78.1589 400.402 77.3657C399.472 76.5588 398.74 75.54 398.207 74.3091C397.674 73.0646 397.407 71.5944 397.407 69.8986H403.417C403.417 70.8012 403.506 71.5739 403.684 72.2167C403.862 72.8458 404.135 73.3518 404.505 73.7347C404.874 74.104 405.325 74.3843 405.859 74.5758C406.406 74.7536 407.028 74.8425 407.725 74.8425C408.519 74.8425 409.148 74.6921 409.613 74.3912C410.091 74.0903 410.433 73.6869 410.638 73.1808C410.844 72.6748 410.946 72.1004 410.946 71.4577ZM432.056 49.446V79.3146H426.086V49.446H432.056ZM439.482 49.446V54.4309H418.804V49.446H439.482ZM450.479 54.7796L444.058 79.3146H437.719L447.053 49.446H451.012L450.479 54.7796ZM455.546 79.3146L449.084 54.7796L448.489 49.446H452.509L461.925 79.3146H455.546ZM455.771 68.1754V73.1603H442.293V68.1754H455.771ZM476.573 71.4577C476.573 70.9243 476.526 70.4388 476.43 70.0011C476.334 69.5635 476.129 69.1601 475.814 68.7908C475.514 68.4216 475.069 68.0523 474.481 67.683C473.907 67.3138 473.154 66.9309 472.224 66.5343C471.117 66.0693 470.043 65.5769 469.004 65.0572C467.964 64.5239 467.028 63.9084 466.193 63.211C465.359 62.5135 464.696 61.6929 464.203 60.7493C463.725 59.7919 463.485 58.6705 463.485 57.3849C463.485 56.1267 463.711 54.9848 464.162 53.9591C464.627 52.9334 465.284 52.0581 466.132 51.3333C466.98 50.5948 467.971 50.0272 469.106 49.6306C470.255 49.234 471.534 49.0357 472.942 49.0357C474.857 49.0357 476.512 49.4323 477.907 50.2255C479.315 51.0187 480.403 52.106 481.169 53.4873C481.948 54.8685 482.338 56.455 482.338 58.2465H476.348C476.348 57.3986 476.225 56.6533 475.979 56.0105C475.746 55.354 475.37 54.8412 474.85 54.4719C474.331 54.1027 473.66 53.918 472.84 53.918C472.074 53.918 471.438 54.0753 470.932 54.3899C470.44 54.6907 470.07 55.1079 469.824 55.6412C469.592 56.1609 469.476 56.749 469.476 57.4055C469.476 57.8978 469.592 58.3423 469.824 58.7389C470.07 59.1218 470.406 59.4705 470.829 59.7851C471.253 60.086 471.753 60.38 472.327 60.6672C472.915 60.9544 473.558 61.2348 474.255 61.5083C475.609 62.0417 476.806 62.6297 477.845 63.2725C478.885 63.9016 479.753 64.6128 480.451 65.406C481.148 66.1855 481.675 67.0676 482.03 68.0523C482.386 69.037 482.564 70.1584 482.564 71.4166C482.564 72.6612 482.345 73.7963 481.907 74.822C481.483 75.834 480.861 76.7093 480.04 77.4478C479.22 78.1726 478.228 78.7333 477.066 79.1299C475.917 79.5266 474.631 79.7249 473.209 79.7249C471.828 79.7249 470.522 79.5334 469.291 79.1505C468.06 78.7539 466.973 78.1589 466.029 77.3657C465.099 76.5588 464.368 75.54 463.834 74.3091C463.301 73.0646 463.034 71.5944 463.034 69.8986H469.045C469.045 70.8012 469.134 71.5739 469.311 72.2167C469.489 72.8458 469.763 73.3518 470.132 73.7347C470.501 74.104 470.953 74.3843 471.486 74.5758C472.033 74.7536 472.655 74.8425 473.353 74.8425C474.146 74.8425 474.775 74.6921 475.24 74.3912C475.719 74.0903 476.061 73.6869 476.266 73.1808C476.471 72.6748 476.573 72.1004 476.573 71.4577ZM505.439 54.7796L499.018 79.3146H492.679L502.013 49.446H505.972L505.439 54.7796ZM510.505 79.3146L504.044 54.7796L503.449 49.446H507.469L516.885 79.3146H510.505ZM510.731 68.1754V73.1603H497.253V68.1754H510.731ZM535.472 74.3501V79.3146H523.061V74.3501H535.472ZM524.907 49.446V79.3146H518.897V49.446H524.907ZM544.397 49.446V79.3146H538.427V49.446H544.397ZM562.634 74.7604L569.773 81.2019L565.999 84.6688L559.024 78.2273L562.634 74.7604ZM569.65 62.0622V66.6984C569.65 68.8455 569.397 70.7397 568.891 72.3808C568.385 74.0082 567.654 75.369 566.696 76.4631C565.739 77.5435 564.604 78.3572 563.291 78.9043C561.978 79.4513 560.521 79.7249 558.921 79.7249C557.321 79.7249 555.858 79.4513 554.531 78.9043C553.218 78.3572 552.083 77.5435 551.126 76.4631C550.182 75.369 549.444 74.0082 548.91 72.3808C548.391 70.7397 548.131 68.8455 548.131 66.6984V62.0622C548.131 59.9013 548.391 58.014 548.91 56.4003C549.43 54.7728 550.162 53.4189 551.105 52.3385C552.063 51.2444 553.198 50.4238 554.511 49.8768C555.824 49.316 557.28 49.0357 558.88 49.0357C560.494 49.0357 561.957 49.316 563.27 49.8768C564.583 50.4238 565.718 51.2444 566.676 52.3385C567.647 53.4189 568.385 54.7728 568.891 56.4003C569.397 58.014 569.65 59.9013 569.65 62.0622ZM563.66 66.6984V62.0211C563.66 60.5988 563.558 59.3885 563.352 58.3901C563.147 57.3781 562.84 56.5507 562.429 55.9079C562.033 55.2651 561.533 54.7933 560.932 54.4924C560.344 54.1916 559.66 54.0411 558.88 54.0411C558.114 54.0411 557.431 54.1916 556.829 54.4924C556.227 54.7933 555.728 55.2651 555.331 55.9079C554.948 56.5507 554.648 57.3781 554.429 58.3901C554.224 59.3885 554.121 60.5988 554.121 62.0211V66.6984C554.121 68.1207 554.224 69.3447 554.429 70.3704C554.648 71.3824 554.955 72.2098 555.352 72.8526C555.748 73.4954 556.248 73.9741 556.849 74.2886C557.451 74.5895 558.142 74.7399 558.921 74.7399C559.687 74.7399 560.364 74.5895 560.952 74.2886C561.554 73.9741 562.053 73.4954 562.45 72.8526C562.86 72.2098 563.161 71.3824 563.352 70.3704C563.558 69.3447 563.66 68.1207 563.66 66.6984ZM586.616 49.446H592.606V69.9601C592.606 72.2577 592.182 74.1313 591.335 75.581C590.5 77.017 589.345 78.0701 587.868 78.7402C586.391 79.3966 584.702 79.7249 582.801 79.7249C580.886 79.7249 579.183 79.3966 577.693 78.7402C576.202 78.0701 575.04 77.017 574.205 75.581C573.385 74.1313 572.974 72.2577 572.974 69.9601V49.446H578.965V69.9601C578.965 71.2593 579.108 72.2577 579.395 72.9552C579.696 73.6527 580.127 74.1313 580.688 74.3912C581.262 74.6373 581.966 74.7604 582.801 74.7604C583.649 74.7604 584.346 74.6373 584.893 74.3912C585.454 74.1313 585.878 73.6527 586.165 72.9552C586.466 72.2577 586.616 71.2593 586.616 69.9601V49.446ZM606.721 54.7796L600.3 79.3146H593.961L603.295 49.446H607.254L606.721 54.7796ZM611.788 79.3146L605.326 54.7796L604.731 49.446H608.752L618.168 79.3146H611.788ZM612.014 68.1754V73.1603H598.536V68.1754H612.014ZM622.313 49.446H627.585L633.677 69.8781L639.75 49.446H644.406L635.913 79.3146H631.421L622.313 49.446ZM620.179 49.446H625.205L625.985 69.1396V79.3146H620.179V49.446ZM642.109 49.446H647.155V79.3146H641.37V69.1396L642.109 49.446ZM669.353 72.9347L675.015 49.446H681.498L672.841 79.3146H668.471L669.353 72.9347ZM664.512 49.446L670.153 72.9347L671.076 79.3146H666.686L658.091 49.446H664.512ZM689.745 49.446V79.3146H683.775V49.446H689.745ZM703.326 72.9347L708.988 49.446H715.471L706.814 79.3146H702.444L703.326 72.9347ZM698.485 49.446L704.126 72.9347L705.049 79.3146H700.659L692.064 49.446H698.485ZM734.611 74.3501V79.3146H721.626V74.3501H734.611ZM723.493 49.446V79.3146H717.482V49.446H723.493ZM732.868 61.5493V66.3701H721.626V61.5493H732.868ZM734.57 49.446V54.4309H721.626V49.446H734.57ZM737.299 49.446H746.879C748.876 49.446 750.579 49.7879 751.987 50.4717C753.396 51.1555 754.477 52.1675 755.229 53.5078C755.981 54.848 756.357 56.5028 756.357 58.4722C756.357 60.086 756.138 61.4673 755.701 62.6161C755.263 63.7512 754.641 64.7017 753.834 65.4675C753.027 66.2197 752.063 66.8215 750.941 67.2728L749.116 68.36H741.341L741.32 63.3751H746.715C747.536 63.3751 748.213 63.1973 748.746 62.8417C749.293 62.4725 749.697 61.9596 749.957 61.3031C750.23 60.633 750.367 59.8535 750.367 58.9645C750.367 58.0209 750.244 57.214 749.998 56.5439C749.765 55.8601 749.389 55.3404 748.869 54.9848C748.363 54.6155 747.7 54.4309 746.879 54.4309H743.31V79.3146H737.299V49.446ZM750.859 79.3146L745.382 66.0009L751.68 65.9804L757.28 79.0274V79.3146H750.859ZM759.722 49.446H769.302C771.299 49.446 773.002 49.7879 774.41 50.4717C775.819 51.1555 776.899 52.1675 777.652 53.5078C778.404 54.848 778.78 56.5028 778.78 58.4722C778.78 60.086 778.561 61.4673 778.123 62.6161C777.686 63.7512 777.063 64.7017 776.257 65.4675C775.45 66.2197 774.486 66.8215 773.364 67.2728L771.538 68.36H763.763L763.743 63.3751H769.138C769.959 63.3751 770.636 63.1973 771.169 62.8417C771.716 62.4725 772.12 61.9596 772.379 61.3031C772.653 60.633 772.79 59.8535 772.79 58.9645C772.79 58.0209 772.667 57.214 772.42 56.5439C772.188 55.8601 771.812 55.3404 771.292 54.9848C770.786 54.6155 770.123 54.4309 769.302 54.4309H765.733V79.3146H759.722V49.446ZM773.282 79.3146L767.805 66.0009L774.103 65.9804L779.703 79.0274V79.3146H773.282ZM792.935 54.7796L786.514 79.3146H780.176L789.51 49.446H793.469L792.935 54.7796ZM798.002 79.3146L791.54 54.7796L790.946 49.446H794.966L804.382 79.3146H798.002ZM798.228 68.1754V73.1603H784.75V68.1754H798.228ZM817.369 49.446H822.642L828.734 69.8781L834.806 49.446H839.463L830.97 79.3146H826.478L817.369 49.446ZM815.236 49.446H820.262L821.041 69.1396V79.3146H815.236V49.446ZM837.166 49.446H842.212V79.3146H836.427V69.1396L837.166 49.446ZM852.511 49.446V79.3146H846.541V49.446H852.511ZM856.984 76.3811C856.984 75.4784 857.285 74.7262 857.887 74.1245C858.488 73.5091 859.302 73.2014 860.328 73.2014C861.353 73.2014 862.167 73.5091 862.769 74.1245C863.371 74.7262 863.672 75.4784 863.672 76.3811C863.672 77.2837 863.371 78.0359 862.769 78.6376C862.167 79.2394 861.353 79.5402 860.328 79.5402C859.302 79.5402 858.488 79.2394 857.887 78.6376C857.285 78.0359 856.984 77.2837 856.984 76.3811Z" fill="white"/>
</svg>
