<svg width="16" height="16" viewBox="0 0 16 16" fill="none" xmlns="http://www.w3.org/2000/svg">
<path d="M8.93333 7.59961V4.26628C8.93333 4.08947 8.86309 3.9199 8.73807 3.79487C8.61305 3.66985 8.44348 3.59961 8.26666 3.59961C8.08985 3.59961 7.92028 3.66985 7.79526 3.79487C7.67024 3.9199 7.6 4.08947 7.6 4.26628V7.59961H4.26667C4.08985 7.59961 3.92028 7.66985 3.79526 7.79487C3.67024 7.9199 3.6 8.08946 3.6 8.26628C3.6 8.44309 3.67024 8.61266 3.79526 8.73768C3.92028 8.8627 4.08985 8.93294 4.26667 8.93294H7.6V12.2663C7.6 12.4431 7.67024 12.6127 7.79526 12.7377C7.92028 12.8627 8.08985 12.9329 8.26666 12.9329C8.44348 12.9329 8.61305 12.8627 8.73807 12.7377C8.86309 12.6127 8.93333 12.4431 8.93333 12.2663V8.93294H12.2667C12.4435 8.93294 12.613 8.8627 12.7381 8.73768C12.8631 8.61266 12.9333 8.44309 12.9333 8.26628C12.9333 8.08946 12.8631 7.9199 12.7381 7.79487C12.613 7.66985 12.4435 7.59961 12.2667 7.59961H8.93333Z" fill="#E2E8F0"/>
</svg>
