<svg width="1684" height="2119" viewBox="0 0 1684 2119" fill="none" xmlns="http://www.w3.org/2000/svg">
<path d="M253.455 1802.45C225.039 1642.68 396.813 1285.11 549.671 1081.38C725.829 846.623 834.31 872.889 954.934 657.611C1065.02 461.195 1030.9 338.903 1113.96 200.296C1190.29 72.9166 1345.52 -34.7642 1683.79 12.5796" stroke="url(#paint0_linear_45_289)" stroke-opacity="0.1" stroke-width="2" stroke-miterlimit="10"/>
<path d="M1679.39 46.172C1345.52 0.173278 1189.26 105.321 1110.65 231.256C1052.41 324.669 1048.63 411.524 1015.89 519.589C999.8 574.195 975.999 630.429 946.625 683.242C850.439 856.313 763.273 878.136 639.056 1004.65C607.365 1036.82 576.033 1073.25 545.706 1113.18C391.448 1315.62 217.825 1658.92 241.342 1818.09" stroke="url(#paint1_linear_45_289)" stroke-opacity="0.1" stroke-width="2" stroke-miterlimit="10"/>
<path d="M1674.96 79.7163C1345.49 35.0914 1188.26 137.632 1107.56 261.911C1048.24 353.271 1042.08 439.429 1008.45 545.455C991.492 600.05 967.587 655.821 938.56 708.516C844.09 879.989 759.281 908.136 635.136 1036.47C603.567 1069.03 572.344 1105.29 541.969 1144.68C386.444 1346.3 210.828 1674.86 229.445 1833.42" stroke="url(#paint2_linear_45_289)" stroke-opacity="0.1" stroke-width="2" stroke-miterlimit="10"/>
<path d="M1670.52 113.134C1345.53 69.8874 1187.29 169.945 1104.37 292.635C1043.93 382.054 1035.48 467.336 1000.89 571.448C983.107 625.948 959.124 681.235 930.469 733.784C837.615 903.794 755.378 937.941 631.19 1068.28C599.707 1101.19 568.551 1137.31 538.105 1176.21C381.246 1376.73 203.729 1690.79 217.446 1848.76" stroke="url(#paint3_linear_45_289)" stroke-opacity="0.1" stroke-width="2" stroke-miterlimit="10"/>
<path d="M1666.14 146.645C1345.53 104.715 1186.38 202.207 1101.17 323.41C1039.69 410.813 1028.83 495.386 993.271 597.482C974.655 651.923 950.547 706.816 922.21 759.285C830.972 927.835 751.241 968.107 626.951 1100.51C595.637 1133.74 564.622 1169.67 534.18 1207.98C375.962 1407.43 196.551 1707.02 205.343 1864.42" stroke="url(#paint4_linear_45_289)" stroke-opacity="0.1" stroke-width="2" stroke-miterlimit="10"/>
<path d="M1661.83 179.898C1345.55 139.441 1184.58 232.288 1097.95 354.103C1036.1 440.991 1022.11 523.22 985.707 623.417C966.255 677.748 942.022 732.244 914.018 784.633C824.395 951.726 747.22 998.059 623.011 1132.31C591.821 1165.85 560.896 1201.62 530.429 1239.39C370.817 1437.69 189.538 1722.89 193.436 1879.71" stroke="url(#paint5_linear_45_289)" stroke-opacity="0.1" stroke-width="2" stroke-miterlimit="10"/>
<path d="M1657.3 213.408C1345.55 174.184 1184.61 266.727 1094.73 384.613C1031.35 468.162 1015.4 551.225 978.13 649.377C957.869 703.551 933.511 757.665 905.838 809.974C817.831 975.611 743.128 1028.08 618.974 1164.22C587.917 1198.09 557.084 1233.72 526.598 1270.96C365.626 1468.2 182.419 1738.86 181.44 1895.15" stroke="url(#paint6_linear_45_289)" stroke-opacity="0.1" stroke-width="2" stroke-miterlimit="10"/>
<path d="M1652.9 246.754C1345.62 208.806 1183.71 298.812 1091.57 415.411C1027.16 496.789 1008.56 579.094 970.535 675.294C949.482 729.265 924.982 783.007 897.624 835.227C811.265 999.397 739.051 1058.06 614.902 1196.04C586.025 1228.17 555.378 1262.97 522.724 1302.42C360.342 1498.56 175.325 1754.89 169.427 1910.54" stroke="url(#paint7_linear_45_289)" stroke-opacity="0.1" stroke-width="2" stroke-miterlimit="10"/>
<path d="M1648.5 279.992C1345.58 243.523 1182.91 331.061 1088.37 445.91C1022.99 525.359 1001.7 606.943 962.885 701.18C941.034 754.942 916.387 808.365 889.354 860.555C804.609 1023.27 734.908 1087.98 610.781 1227.97C581.88 1260.55 551.324 1295.3 518.775 1334.03C355.215 1528.81 168.221 1770.87 157.411 1925.89" stroke="url(#paint8_linear_45_289)" stroke-opacity="0.1" stroke-width="2" stroke-miterlimit="10"/>
<path d="M1644.05 313.216C1345.57 278.126 1182.08 363.242 1085.18 476.536C1018.87 554.046 994.741 634.986 955.381 726.949C932.766 780.443 907.977 833.548 881.279 885.7C798.123 1047 730.927 1117.84 606.787 1259.64C577.987 1292.5 547.405 1327.28 514.971 1365.32C349.817 1559.12 161.063 1786.7 145.358 1941.15" stroke="url(#paint9_linear_45_289)" stroke-opacity="0.1" stroke-width="2" stroke-miterlimit="10"/>
<path d="M1639.65 346.352C1345.6 312.628 1181.27 395.408 1082.05 506.936C1014.81 582.534 987.924 662.651 947.856 752.701C924.47 805.888 899.516 858.697 873.143 910.819C791.624 1070.64 726.924 1147.59 602.83 1291.46C574.023 1324.81 543.506 1359.48 511.219 1396.81C344.646 1589.42 154.074 1802.66 133.415 1956.58" stroke="url(#paint10_linear_45_289)" stroke-opacity="0.1" stroke-width="2" stroke-miterlimit="10"/>
<path d="M1635.24 379.426C1345.6 347.13 1180.42 427.588 1078.8 537.455C1010.61 611.198 980.926 690.483 940.251 778.487C916.865 829.066 892.851 880.665 864.907 936.031C784.993 1094.38 722.804 1177.49 598.73 1323.27C569.957 1357.03 539.482 1391.61 507.267 1428.34C339.274 1619.75 146.86 1818.7 121.33 1972.02" stroke="url(#paint11_linear_45_289)" stroke-opacity="0.1" stroke-width="2" stroke-miterlimit="10"/>
<path d="M1630.83 412.418C1345.64 381.626 1179.76 459.511 1075.62 567.833C1006.48 639.702 973.908 718.212 932.667 804.185C908.333 854.921 884.108 906.261 856.718 961.124C778.441 1118.1 718.745 1207.22 594.675 1354.97C565.944 1389.16 535.484 1423.69 503.458 1459.63C334.053 1649.77 139.791 1834.51 109.363 1987.26" stroke="url(#paint12_linear_45_289)" stroke-opacity="0.1" stroke-width="2" stroke-miterlimit="10"/>
<path d="M1626.48 445.27C1345.63 415.862 1178.83 491.765 1072.45 598.155C1002.38 668.221 966.885 745.866 925.095 829.856C899.77 880.74 875.368 931.811 848.639 986.06C771.923 1141.56 714.803 1236.82 590.635 1386.68C561.905 1421.28 531.511 1455.7 499.615 1490.99C328.755 1679.86 132.671 1850.37 97.3458 2002.56" stroke="url(#paint13_linear_45_289)" stroke-opacity="0.1" stroke-width="2" stroke-miterlimit="10"/>
<path d="M1621.98 478.144C1345.63 450.085 1178.1 523.722 1069.25 628.387C998.218 696.665 959.812 773.393 917.531 855.357C891.206 906.367 866.594 957.285 840.344 1011.13C765.288 1165.12 710.609 1266.57 586.567 1418.25C556.558 1454.54 526.227 1489.23 495.693 1522.18C323.471 1709.83 125.492 1866.32 85.3179 2017.79" stroke="url(#paint14_linear_45_289)" stroke-opacity="0.1" stroke-width="2" stroke-miterlimit="10"/>
<path d="M1617.57 510.842C1345.64 484.241 1177.14 555.798 1066.15 658.408C994.165 724.924 952.811 800.728 909.93 880.883C882.598 931.998 857.824 982.696 832.16 1036.03C758.689 1188.62 706.533 1296.18 582.558 1449.72C552.7 1486.34 522.419 1520.96 491.904 1553.39C318.136 1739.63 118.447 1882 73.2416 2032.96" stroke="url(#paint15_linear_45_289)" stroke-opacity="0.1" stroke-width="2" stroke-miterlimit="10"/>
<path d="M1613.16 543.418C1345.67 518.227 1176.24 587.927 1062.88 688.567C990.004 753.304 945.642 828.129 902.37 906.232C874.021 957.432 849.111 1007.98 824 1060.82C752.162 1211.94 702.467 1325.65 578.443 1481.26C548.726 1518.17 518.483 1552.72 487.984 1584.6C312.878 1769.51 111.33 1897.76 61.2511 2048.25" stroke="url(#paint16_linear_45_289)" stroke-opacity="0.1" stroke-width="2" stroke-miterlimit="10"/>
<path d="M1608.71 572.943C1345.75 549.565 1175.57 617.135 1059.76 716.186C985.851 779.367 938.563 853.131 894.838 929.419C865.348 980.84 840.368 1031.18 815.808 1083.58C745.536 1233.34 698.354 1353.29 574.31 1511.07C544.728 1548.3 514.515 1582.82 484.036 1614.21C307.484 1797.99 104.115 1912.45 49.1079 2062.5" stroke="url(#paint17_linear_45_289)" stroke-opacity="0.1" stroke-width="2" stroke-miterlimit="10"/>
<path d="M1604.27 602.214C1345.86 580.275 1174.75 646.331 1056.62 743.658C981.754 805.264 931.525 877.934 887.323 952.549C856.892 1004.03 831.626 1054.39 807.659 1106.27C738.985 1254.76 694.252 1380.9 570.186 1540.77C540.739 1578.31 510.552 1612.8 480.096 1643.7C302.089 1826.33 96.8219 1927.29 36.9892 2076.68" stroke="url(#paint18_linear_45_289)" stroke-opacity="0.1" stroke-width="2" stroke-miterlimit="10"/>
<path d="M1599.84 631.365C1345.78 611.241 1173.88 675.389 1053.44 770.766C977.551 830.842 924.391 902.347 879.697 975.248C848.175 1026.69 822.848 1077.07 799.416 1128.58C732.35 1275.73 690.07 1408.09 565.996 1570.19C536.689 1608.07 506.52 1642.54 476.089 1672.93C296.626 1854.32 89.657 1941.35 24.7948 2090.57" stroke="url(#paint19_linear_45_289)" stroke-opacity="0.1" stroke-width="2" stroke-miterlimit="10"/>
<path d="M1595.37 660.506C1345.78 641.981 1173.05 704.475 1050.35 797.751C973.477 856.305 917.395 926.573 872.236 997.827C839.632 1049.26 814.178 1099.69 791.299 1150.66C725.8 1296.56 685.979 1435.17 561.896 1599.41C532.715 1637.6 502.555 1672.07 472.147 1701.98C291.286 1881.77 82.5204 1955.49 12.6737 2104.36" stroke="url(#paint20_linear_45_289)" stroke-opacity="0.1" stroke-width="2" stroke-miterlimit="10"/>
<path d="M1590.96 689.586C1193.12 662.007 983.495 839.012 864.541 1020.63C734.684 1218.88 725.098 1404.25 557.611 1628.9C361.126 1892.4 87.8385 1944.59 0.456017 2118.2" stroke="url(#paint21_linear_45_289)" stroke-opacity="0.1" stroke-width="2" stroke-miterlimit="10"/>
<defs>
<linearGradient id="paint0_linear_45_289" x1="842.402" y1="563.409" x2="1122.01" y2="770.622" gradientUnits="userSpaceOnUse">
<stop stop-color="#155ADA"/>
<stop offset="1" stop-color="#0B743B"/>
</linearGradient>
<linearGradient id="paint1_linear_45_289" x1="837.604" y1="597.446" x2="1117.25" y2="804.694" gradientUnits="userSpaceOnUse">
<stop stop-color="#155ADA"/>
<stop offset="1" stop-color="#0B743B"/>
</linearGradient>
<linearGradient id="paint2_linear_45_289" x1="832.859" y1="631.215" x2="1112.6" y2="838.53" gradientUnits="userSpaceOnUse">
<stop stop-color="#155ADA"/>
<stop offset="1" stop-color="#0B743B"/>
</linearGradient>
<linearGradient id="paint3_linear_45_289" x1="828.033" y1="664.827" x2="1107.94" y2="872.262" gradientUnits="userSpaceOnUse">
<stop stop-color="#155ADA"/>
<stop offset="1" stop-color="#0B743B"/>
</linearGradient>
<linearGradient id="paint4_linear_45_289" x1="823.091" y1="698.412" x2="1103.33" y2="906.091" gradientUnits="userSpaceOnUse">
<stop stop-color="#155ADA"/>
<stop offset="1" stop-color="#0B743B"/>
</linearGradient>
<linearGradient id="paint5_linear_45_289" x1="818.208" y1="731.465" x2="1098.93" y2="939.497" gradientUnits="userSpaceOnUse">
<stop stop-color="#155ADA"/>
<stop offset="1" stop-color="#0B743B"/>
</linearGradient>
<linearGradient id="paint6_linear_45_289" x1="813.125" y1="764.593" x2="1094.42" y2="973.033" gradientUnits="userSpaceOnUse">
<stop stop-color="#155ADA"/>
<stop offset="1" stop-color="#0B743B"/>
</linearGradient>
<linearGradient id="paint7_linear_45_289" x1="808.093" y1="797.611" x2="1089.97" y2="1006.47" gradientUnits="userSpaceOnUse">
<stop stop-color="#155ADA"/>
<stop offset="1" stop-color="#0B743B"/>
</linearGradient>
<linearGradient id="paint8_linear_45_289" x1="802.93" y1="830.199" x2="1085.65" y2="1039.67" gradientUnits="userSpaceOnUse">
<stop stop-color="#155ADA"/>
<stop offset="1" stop-color="#0B743B"/>
</linearGradient>
<linearGradient id="paint9_linear_45_289" x1="797.718" y1="862.699" x2="1081.33" y2="1072.8" gradientUnits="userSpaceOnUse">
<stop stop-color="#155ADA"/>
<stop offset="1" stop-color="#0B743B"/>
</linearGradient>
<linearGradient id="paint10_linear_45_289" x1="792.43" y1="894.832" x2="1077.14" y2="1105.73" gradientUnits="userSpaceOnUse">
<stop stop-color="#155ADA"/>
<stop offset="1" stop-color="#0B743B"/>
</linearGradient>
<linearGradient id="paint11_linear_45_289" x1="787.004" y1="926.751" x2="1072.99" y2="1138.57" gradientUnits="userSpaceOnUse">
<stop stop-color="#155ADA"/>
<stop offset="1" stop-color="#0B743B"/>
</linearGradient>
<linearGradient id="paint12_linear_45_289" x1="781.538" y1="958.266" x2="1068.99" y2="1171.13" gradientUnits="userSpaceOnUse">
<stop stop-color="#155ADA"/>
<stop offset="1" stop-color="#0B743B"/>
</linearGradient>
<linearGradient id="paint13_linear_45_289" x1="775.967" y1="989.447" x2="1065.08" y2="1203.51" gradientUnits="userSpaceOnUse">
<stop stop-color="#155ADA"/>
<stop offset="1" stop-color="#0B743B"/>
</linearGradient>
<linearGradient id="paint14_linear_45_289" x1="770.188" y1="1020.23" x2="1061.23" y2="1235.67" gradientUnits="userSpaceOnUse">
<stop stop-color="#155ADA"/>
<stop offset="1" stop-color="#0B743B"/>
</linearGradient>
<linearGradient id="paint15_linear_45_289" x1="764.291" y1="1050.52" x2="1057.56" y2="1267.56" gradientUnits="userSpaceOnUse">
<stop stop-color="#155ADA"/>
<stop offset="1" stop-color="#0B743B"/>
</linearGradient>
<linearGradient id="paint16_linear_45_289" x1="758.235" y1="1080.26" x2="1054.06" y2="1299.13" gradientUnits="userSpaceOnUse">
<stop stop-color="#155ADA"/>
<stop offset="1" stop-color="#0B743B"/>
</linearGradient>
<linearGradient id="paint17_linear_45_289" x1="748.049" y1="1096.79" x2="1054.35" y2="1323.13" gradientUnits="userSpaceOnUse">
<stop stop-color="#155ADA"/>
<stop offset="1" stop-color="#0B743B"/>
</linearGradient>
<linearGradient id="paint18_linear_45_289" x1="737.507" y1="1112.09" x2="1055.02" y2="1346.42" gradientUnits="userSpaceOnUse">
<stop stop-color="#155ADA"/>
<stop offset="1" stop-color="#0B743B"/>
</linearGradient>
<linearGradient id="paint19_linear_45_289" x1="726.698" y1="1126.52" x2="1055.96" y2="1369.22" gradientUnits="userSpaceOnUse">
<stop stop-color="#155ADA"/>
<stop offset="1" stop-color="#0B743B"/>
</linearGradient>
<linearGradient id="paint20_linear_45_289" x1="715.775" y1="1140.5" x2="1057.05" y2="1391.74" gradientUnits="userSpaceOnUse">
<stop stop-color="#155ADA"/>
<stop offset="1" stop-color="#0B743B"/>
</linearGradient>
<linearGradient id="paint21_linear_45_289" x1="704.696" y1="1154.08" x2="1058.29" y2="1414.06" gradientUnits="userSpaceOnUse">
<stop stop-color="#155ADA"/>
<stop offset="1" stop-color="#0B743B"/>
</linearGradient>
</defs>
</svg>
