<svg width="64" height="64" viewBox="0 0 64 64" fill="none" xmlns="http://www.w3.org/2000/svg">
<path d="M45.3333 58.6663H18.6667C15.7211 58.6663 13.3333 56.2786 13.3333 53.333V29.8175C13.3333 29.5015 13.2398 29.1927 13.0646 28.9298L8.26872 21.7361C8.09349 21.4732 8 21.1644 8 20.8486V6.93301C8 6.04935 8.71635 5.33301 9.6 5.33301H14.4C15.2837 5.33301 16 6.04935 16 6.93301V11.733C16 12.6167 16.7163 13.333 17.6 13.333H25.0667C25.9503 13.333 26.6667 12.6167 26.6667 11.733V6.93301C26.6667 6.04935 27.3829 5.33301 28.2667 5.33301H35.7333C36.6171 5.33301 37.3333 6.04935 37.3333 6.93301V11.733C37.3333 12.6167 38.0496 13.333 38.9333 13.333H46.4C47.2837 13.333 48 12.6167 48 11.733V6.93301C48 6.04935 48.7163 5.33301 49.6 5.33301H54.4C55.2837 5.33301 56 6.04935 56 6.93301V20.8486C56 21.1644 55.9064 21.4732 55.7312 21.7361L50.9355 28.9298C50.7603 29.1927 50.6667 29.5015 50.6667 29.8175V53.333C50.6667 56.2786 48.2789 58.6663 45.3333 58.6663Z" stroke="#155ADA" stroke-width="1.5"/>
</svg>
