<svg width="16" height="16" viewBox="0 0 16 16" fill="none" xmlns="http://www.w3.org/2000/svg">
<path d="M8.93334 7.59961V4.26628C8.93334 4.08947 8.8631 3.9199 8.73808 3.79487C8.61305 3.66985 8.44348 3.59961 8.26667 3.59961C8.08986 3.59961 7.92029 3.66985 7.79527 3.79487C7.67024 3.9199 7.60001 4.08947 7.60001 4.26628V7.59961H4.26667C4.08986 7.59961 3.92029 7.66985 3.79527 7.79487C3.67024 7.9199 3.60001 8.08946 3.60001 8.26628C3.60001 8.44309 3.67024 8.61266 3.79527 8.73768C3.92029 8.8627 4.08986 8.93294 4.26667 8.93294H7.60001V12.2663C7.60001 12.4431 7.67024 12.6127 7.79527 12.7377C7.92029 12.8627 8.08986 12.9329 8.26667 12.9329C8.44348 12.9329 8.61305 12.8627 8.73808 12.7377C8.8631 12.6127 8.93334 12.4431 8.93334 12.2663V8.93294H12.2667C12.4435 8.93294 12.6131 8.8627 12.7381 8.73768C12.8631 8.61266 12.9333 8.44309 12.9333 8.26628C12.9333 8.08946 12.8631 7.9199 12.7381 7.79487C12.6131 7.66985 12.4435 7.59961 12.2667 7.59961H8.93334Z" fill="#E2E8F0"/>
</svg>
